<?xml version="1.0" encoding="utf-8" standalone="no"?>
<!DOCTYPE svg PUBLIC "-//W3C//DTD SVG 1.1//EN"
  "http://www.w3.org/Graphics/SVG/1.1/DTD/svg11.dtd">
<svg xmlns:xlink="http://www.w3.org/1999/xlink" width="448.30435pt" height="352.714375pt" viewBox="0 0 448.30435 352.714375" xmlns="http://www.w3.org/2000/svg" version="1.1">
 <metadata>
  <rdf:RDF xmlns:dc="http://purl.org/dc/elements/1.1/" xmlns:cc="http://creativecommons.org/ns#" xmlns:rdf="http://www.w3.org/1999/02/22-rdf-syntax-ns#">
   <cc:Work>
    <dc:type rdf:resource="http://purl.org/dc/dcmitype/StillImage"/>
    <dc:date>2023-06-10T01:23:43.511871</dc:date>
    <dc:format>image/svg+xml</dc:format>
    <dc:creator>
     <cc:Agent>
      <dc:title>Matplotlib v3.7.1, https://matplotlib.org/</dc:title>
     </cc:Agent>
    </dc:creator>
   </cc:Work>
  </rdf:RDF>
 </metadata>
 <defs>
  <style type="text/css">*{stroke-linejoin: round; stroke-linecap: butt}</style>
 </defs>
 <g id="figure_1">
  <g id="patch_1">
   <path d="M 0 352.714375 
L 448.30435 352.714375 
L 448.30435 0 
L 0 0 
z
" style="fill: #ffffff"/>
  </g>
  <g id="axes_1">
   <g id="patch_2">
    <path d="M 34.240625 315.158125 
L 397.901225 315.158125 
L 397.901225 22.318125 
L 34.240625 22.318125 
z
" style="fill: #ffffff"/>
   </g>
   <g id="PathCollection_1">
    <defs>
     <path id="ma008bcdc3f" d="M -3 3 
L 3 -3 
M -3 -3 
L 3 3 
" style="stroke: #d62728; stroke-width: 1.5"/>
    </defs>
    <g clip-path="url(#p31307b3f7a)">
     <use xlink:href="#ma008bcdc3f" x="381.371198" y="301.847216" style="fill: #d62728; stroke: #d62728; stroke-width: 1.5"/>
     <use xlink:href="#ma008bcdc3f" x="374.624248" y="301.352485" style="fill: #d62728; stroke: #d62728; stroke-width: 1.5"/>
     <use xlink:href="#ma008bcdc3f" x="367.877298" y="300.690518" style="fill: #d62728; stroke: #d62728; stroke-width: 1.5"/>
     <use xlink:href="#ma008bcdc3f" x="361.130348" y="299.78315" style="fill: #d62728; stroke: #d62728; stroke-width: 1.5"/>
     <use xlink:href="#ma008bcdc3f" x="354.383398" y="298.57297" style="fill: #d62728; stroke: #d62728; stroke-width: 1.5"/>
     <use xlink:href="#ma008bcdc3f" x="347.636448" y="296.961193" style="fill: #d62728; stroke: #d62728; stroke-width: 1.5"/>
     <use xlink:href="#ma008bcdc3f" x="340.889498" y="294.847566" style="fill: #d62728; stroke: #d62728; stroke-width: 1.5"/>
     <use xlink:href="#ma008bcdc3f" x="334.142548" y="292.118766" style="fill: #d62728; stroke: #d62728; stroke-width: 1.5"/>
     <use xlink:href="#ma008bcdc3f" x="327.395598" y="288.550749" style="fill: #d62728; stroke: #d62728; stroke-width: 1.5"/>
     <use xlink:href="#ma008bcdc3f" x="320.648649" y="284.021747" style="fill: #d62728; stroke: #d62728; stroke-width: 1.5"/>
     <use xlink:href="#ma008bcdc3f" x="313.901699" y="278.367458" style="fill: #d62728; stroke: #d62728; stroke-width: 1.5"/>
     <use xlink:href="#ma008bcdc3f" x="307.154749" y="271.264034" style="fill: #d62728; stroke: #d62728; stroke-width: 1.5"/>
     <use xlink:href="#ma008bcdc3f" x="300.407799" y="262.639339" style="fill: #d62728; stroke: #d62728; stroke-width: 1.5"/>
     <use xlink:href="#ma008bcdc3f" x="293.660849" y="252.411311" style="fill: #d62728; stroke: #d62728; stroke-width: 1.5"/>
     <use xlink:href="#ma008bcdc3f" x="286.913899" y="240.562838" style="fill: #d62728; stroke: #d62728; stroke-width: 1.5"/>
     <use xlink:href="#ma008bcdc3f" x="280.166949" y="226.598807" style="fill: #d62728; stroke: #d62728; stroke-width: 1.5"/>
     <use xlink:href="#ma008bcdc3f" x="273.419999" y="210.821953" style="fill: #d62728; stroke: #d62728; stroke-width: 1.5"/>
     <use xlink:href="#ma008bcdc3f" x="266.673049" y="193.611371" style="fill: #d62728; stroke: #d62728; stroke-width: 1.5"/>
     <use xlink:href="#ma008bcdc3f" x="259.926099" y="175.066325" style="fill: #d62728; stroke: #d62728; stroke-width: 1.5"/>
     <use xlink:href="#ma008bcdc3f" x="253.179149" y="156.536102" style="fill: #d62728; stroke: #d62728; stroke-width: 1.5"/>
     <use xlink:href="#ma008bcdc3f" x="246.4322" y="138.367006" style="fill: #d62728; stroke: #d62728; stroke-width: 1.5"/>
     <use xlink:href="#ma008bcdc3f" x="239.68525" y="121.236375" style="fill: #d62728; stroke: #d62728; stroke-width: 1.5"/>
     <use xlink:href="#ma008bcdc3f" x="232.9383" y="105.169811" style="fill: #d62728; stroke: #d62728; stroke-width: 1.5"/>
     <use xlink:href="#ma008bcdc3f" x="226.19135" y="90.64747" style="fill: #d62728; stroke: #d62728; stroke-width: 1.5"/>
     <use xlink:href="#ma008bcdc3f" x="219.4444" y="78.547466" style="fill: #d62728; stroke: #d62728; stroke-width: 1.5"/>
     <use xlink:href="#ma008bcdc3f" x="212.69745" y="69.273595" style="fill: #d62728; stroke: #d62728; stroke-width: 1.5"/>
     <use xlink:href="#ma008bcdc3f" x="205.9505" y="63.708015" style="fill: #d62728; stroke: #d62728; stroke-width: 1.5"/>
     <use xlink:href="#ma008bcdc3f" x="199.20355" y="60.3887" style="fill: #d62728; stroke: #d62728; stroke-width: 1.5"/>
     <use xlink:href="#ma008bcdc3f" x="192.4566" y="59.170121" style="fill: #d62728; stroke: #d62728; stroke-width: 1.5"/>
     <use xlink:href="#ma008bcdc3f" x="185.70965" y="59.000337" style="fill: #d62728; stroke: #d62728; stroke-width: 1.5"/>
     <use xlink:href="#ma008bcdc3f" x="178.962701" y="58.097968" style="fill: #d62728; stroke: #d62728; stroke-width: 1.5"/>
     <use xlink:href="#ma008bcdc3f" x="172.215751" y="56.448642" style="fill: #d62728; stroke: #d62728; stroke-width: 1.5"/>
     <use xlink:href="#ma008bcdc3f" x="165.468801" y="53.98633" style="fill: #d62728; stroke: #d62728; stroke-width: 1.5"/>
     <use xlink:href="#ma008bcdc3f" x="158.721851" y="51.594536" style="fill: #d62728; stroke: #d62728; stroke-width: 1.5"/>
     <use xlink:href="#ma008bcdc3f" x="151.974901" y="49.439901" style="fill: #d62728; stroke: #d62728; stroke-width: 1.5"/>
     <use xlink:href="#ma008bcdc3f" x="145.227951" y="47.004539" style="fill: #d62728; stroke: #d62728; stroke-width: 1.5"/>
     <use xlink:href="#ma008bcdc3f" x="138.481001" y="44.850801" style="fill: #d62728; stroke: #d62728; stroke-width: 1.5"/>
     <use xlink:href="#ma008bcdc3f" x="131.734051" y="42.724913" style="fill: #d62728; stroke: #d62728; stroke-width: 1.5"/>
     <use xlink:href="#ma008bcdc3f" x="124.987101" y="40.967337" style="fill: #d62728; stroke: #d62728; stroke-width: 1.5"/>
     <use xlink:href="#ma008bcdc3f" x="118.240151" y="39.528668" style="fill: #d62728; stroke: #d62728; stroke-width: 1.5"/>
     <use xlink:href="#ma008bcdc3f" x="111.493201" y="38.700411" style="fill: #d62728; stroke: #d62728; stroke-width: 1.5"/>
     <use xlink:href="#ma008bcdc3f" x="104.746252" y="37.936834" style="fill: #d62728; stroke: #d62728; stroke-width: 1.5"/>
     <use xlink:href="#ma008bcdc3f" x="97.999302" y="37.404576" style="fill: #d62728; stroke: #d62728; stroke-width: 1.5"/>
     <use xlink:href="#ma008bcdc3f" x="91.252352" y="37.028626" style="fill: #d62728; stroke: #d62728; stroke-width: 1.5"/>
     <use xlink:href="#ma008bcdc3f" x="84.505402" y="36.815274" style="fill: #d62728; stroke: #d62728; stroke-width: 1.5"/>
     <use xlink:href="#ma008bcdc3f" x="77.758452" y="36.765417" style="fill: #d62728; stroke: #d62728; stroke-width: 1.5"/>
     <use xlink:href="#ma008bcdc3f" x="71.011502" y="36.712865" style="fill: #d62728; stroke: #d62728; stroke-width: 1.5"/>
     <use xlink:href="#ma008bcdc3f" x="64.264552" y="36.478401" style="fill: #d62728; stroke: #d62728; stroke-width: 1.5"/>
     <use xlink:href="#ma008bcdc3f" x="57.517602" y="36.16264" style="fill: #d62728; stroke: #d62728; stroke-width: 1.5"/>
     <use xlink:href="#ma008bcdc3f" x="50.770652" y="35.629034" style="fill: #d62728; stroke: #d62728; stroke-width: 1.5"/>
    </g>
   </g>
   <g id="matplotlib.axis_1">
    <g id="xtick_1">
     <g id="line2d_1">
      <defs>
       <path id="m130e56eb24" d="M 0 0 
L 0 3.5 
" style="stroke: #000000; stroke-width: 0.8"/>
      </defs>
      <g>
       <use xlink:href="#m130e56eb24" x="44.023702" y="315.158125" style="stroke: #000000; stroke-width: 0.8"/>
      </g>
     </g>
     <g id="text_1">
      <!-- −1.00 -->
      <g transform="translate(28.701046 329.756562) scale(0.1 -0.1)">
       <defs>
        <path id="DejaVuSans-2212" d="M 678 2272 
L 4684 2272 
L 4684 1741 
L 678 1741 
L 678 2272 
z
" transform="scale(0.015625)"/>
        <path id="DejaVuSans-31" d="M 794 531 
L 1825 531 
L 1825 4091 
L 703 3866 
L 703 4441 
L 1819 4666 
L 2450 4666 
L 2450 531 
L 3481 531 
L 3481 0 
L 794 0 
L 794 531 
z
" transform="scale(0.015625)"/>
        <path id="DejaVuSans-2e" d="M 684 794 
L 1344 794 
L 1344 0 
L 684 0 
L 684 794 
z
" transform="scale(0.015625)"/>
        <path id="DejaVuSans-30" d="M 2034 4250 
Q 1547 4250 1301 3770 
Q 1056 3291 1056 2328 
Q 1056 1369 1301 889 
Q 1547 409 2034 409 
Q 2525 409 2770 889 
Q 3016 1369 3016 2328 
Q 3016 3291 2770 3770 
Q 2525 4250 2034 4250 
z
M 2034 4750 
Q 2819 4750 3233 4129 
Q 3647 3509 3647 2328 
Q 3647 1150 3233 529 
Q 2819 -91 2034 -91 
Q 1250 -91 836 529 
Q 422 1150 422 2328 
Q 422 3509 836 4129 
Q 1250 4750 2034 4750 
z
" transform="scale(0.015625)"/>
       </defs>
       <use xlink:href="#DejaVuSans-2212"/>
       <use xlink:href="#DejaVuSans-31" x="83.789062"/>
       <use xlink:href="#DejaVuSans-2e" x="147.412109"/>
       <use xlink:href="#DejaVuSans-30" x="179.199219"/>
       <use xlink:href="#DejaVuSans-30" x="242.822266"/>
      </g>
     </g>
    </g>
    <g id="xtick_2">
     <g id="line2d_2">
      <g>
       <use xlink:href="#m130e56eb24" x="86.192139" y="315.158125" style="stroke: #000000; stroke-width: 0.8"/>
      </g>
     </g>
     <g id="text_2">
      <!-- −0.75 -->
      <g transform="translate(70.869483 329.756562) scale(0.1 -0.1)">
       <defs>
        <path id="DejaVuSans-37" d="M 525 4666 
L 3525 4666 
L 3525 4397 
L 1831 0 
L 1172 0 
L 2766 4134 
L 525 4134 
L 525 4666 
z
" transform="scale(0.015625)"/>
        <path id="DejaVuSans-35" d="M 691 4666 
L 3169 4666 
L 3169 4134 
L 1269 4134 
L 1269 2991 
Q 1406 3038 1543 3061 
Q 1681 3084 1819 3084 
Q 2600 3084 3056 2656 
Q 3513 2228 3513 1497 
Q 3513 744 3044 326 
Q 2575 -91 1722 -91 
Q 1428 -91 1123 -41 
Q 819 9 494 109 
L 494 744 
Q 775 591 1075 516 
Q 1375 441 1709 441 
Q 2250 441 2565 725 
Q 2881 1009 2881 1497 
Q 2881 1984 2565 2268 
Q 2250 2553 1709 2553 
Q 1456 2553 1204 2497 
Q 953 2441 691 2322 
L 691 4666 
z
" transform="scale(0.015625)"/>
       </defs>
       <use xlink:href="#DejaVuSans-2212"/>
       <use xlink:href="#DejaVuSans-30" x="83.789062"/>
       <use xlink:href="#DejaVuSans-2e" x="147.412109"/>
       <use xlink:href="#DejaVuSans-37" x="179.199219"/>
       <use xlink:href="#DejaVuSans-35" x="242.822266"/>
      </g>
     </g>
    </g>
    <g id="xtick_3">
     <g id="line2d_3">
      <g>
       <use xlink:href="#m130e56eb24" x="128.360576" y="315.158125" style="stroke: #000000; stroke-width: 0.8"/>
      </g>
     </g>
     <g id="text_3">
      <!-- −0.50 -->
      <g transform="translate(113.03792 329.756562) scale(0.1 -0.1)">
       <use xlink:href="#DejaVuSans-2212"/>
       <use xlink:href="#DejaVuSans-30" x="83.789062"/>
       <use xlink:href="#DejaVuSans-2e" x="147.412109"/>
       <use xlink:href="#DejaVuSans-35" x="179.199219"/>
       <use xlink:href="#DejaVuSans-30" x="242.822266"/>
      </g>
     </g>
    </g>
    <g id="xtick_4">
     <g id="line2d_4">
      <g>
       <use xlink:href="#m130e56eb24" x="170.529013" y="315.158125" style="stroke: #000000; stroke-width: 0.8"/>
      </g>
     </g>
     <g id="text_4">
      <!-- −0.25 -->
      <g transform="translate(155.206357 329.756562) scale(0.1 -0.1)">
       <defs>
        <path id="DejaVuSans-32" d="M 1228 531 
L 3431 531 
L 3431 0 
L 469 0 
L 469 531 
Q 828 903 1448 1529 
Q 2069 2156 2228 2338 
Q 2531 2678 2651 2914 
Q 2772 3150 2772 3378 
Q 2772 3750 2511 3984 
Q 2250 4219 1831 4219 
Q 1534 4219 1204 4116 
Q 875 4013 500 3803 
L 500 4441 
Q 881 4594 1212 4672 
Q 1544 4750 1819 4750 
Q 2544 4750 2975 4387 
Q 3406 4025 3406 3419 
Q 3406 3131 3298 2873 
Q 3191 2616 2906 2266 
Q 2828 2175 2409 1742 
Q 1991 1309 1228 531 
z
" transform="scale(0.015625)"/>
       </defs>
       <use xlink:href="#DejaVuSans-2212"/>
       <use xlink:href="#DejaVuSans-30" x="83.789062"/>
       <use xlink:href="#DejaVuSans-2e" x="147.412109"/>
       <use xlink:href="#DejaVuSans-32" x="179.199219"/>
       <use xlink:href="#DejaVuSans-35" x="242.822266"/>
      </g>
     </g>
    </g>
    <g id="xtick_5">
     <g id="line2d_5">
      <g>
       <use xlink:href="#m130e56eb24" x="212.69745" y="315.158125" style="stroke: #000000; stroke-width: 0.8"/>
      </g>
     </g>
     <g id="text_5">
      <!-- 0.00 -->
      <g transform="translate(201.564638 329.756562) scale(0.1 -0.1)">
       <use xlink:href="#DejaVuSans-30"/>
       <use xlink:href="#DejaVuSans-2e" x="63.623047"/>
       <use xlink:href="#DejaVuSans-30" x="95.410156"/>
       <use xlink:href="#DejaVuSans-30" x="159.033203"/>
      </g>
     </g>
    </g>
    <g id="xtick_6">
     <g id="line2d_6">
      <g>
       <use xlink:href="#m130e56eb24" x="254.865887" y="315.158125" style="stroke: #000000; stroke-width: 0.8"/>
      </g>
     </g>
     <g id="text_6">
      <!-- 0.25 -->
      <g transform="translate(243.733074 329.756562) scale(0.1 -0.1)">
       <use xlink:href="#DejaVuSans-30"/>
       <use xlink:href="#DejaVuSans-2e" x="63.623047"/>
       <use xlink:href="#DejaVuSans-32" x="95.410156"/>
       <use xlink:href="#DejaVuSans-35" x="159.033203"/>
      </g>
     </g>
    </g>
    <g id="xtick_7">
     <g id="line2d_7">
      <g>
       <use xlink:href="#m130e56eb24" x="297.034324" y="315.158125" style="stroke: #000000; stroke-width: 0.8"/>
      </g>
     </g>
     <g id="text_7">
      <!-- 0.50 -->
      <g transform="translate(285.901511 329.756562) scale(0.1 -0.1)">
       <use xlink:href="#DejaVuSans-30"/>
       <use xlink:href="#DejaVuSans-2e" x="63.623047"/>
       <use xlink:href="#DejaVuSans-35" x="95.410156"/>
       <use xlink:href="#DejaVuSans-30" x="159.033203"/>
      </g>
     </g>
    </g>
    <g id="xtick_8">
     <g id="line2d_8">
      <g>
       <use xlink:href="#m130e56eb24" x="339.202761" y="315.158125" style="stroke: #000000; stroke-width: 0.8"/>
      </g>
     </g>
     <g id="text_8">
      <!-- 0.75 -->
      <g transform="translate(328.069948 329.756562) scale(0.1 -0.1)">
       <use xlink:href="#DejaVuSans-30"/>
       <use xlink:href="#DejaVuSans-2e" x="63.623047"/>
       <use xlink:href="#DejaVuSans-37" x="95.410156"/>
       <use xlink:href="#DejaVuSans-35" x="159.033203"/>
      </g>
     </g>
    </g>
    <g id="xtick_9">
     <g id="line2d_9">
      <g>
       <use xlink:href="#m130e56eb24" x="381.371198" y="315.158125" style="stroke: #000000; stroke-width: 0.8"/>
      </g>
     </g>
     <g id="text_9">
      <!-- 1.00 -->
      <g transform="translate(370.238385 329.756562) scale(0.1 -0.1)">
       <use xlink:href="#DejaVuSans-31"/>
       <use xlink:href="#DejaVuSans-2e" x="63.623047"/>
       <use xlink:href="#DejaVuSans-30" x="95.410156"/>
       <use xlink:href="#DejaVuSans-30" x="159.033203"/>
      </g>
     </g>
    </g>
    <g id="text_10">
     <!-- x/L -->
     <g transform="translate(208.641237 343.434687) scale(0.1 -0.1)">
      <defs>
       <path id="DejaVuSans-78" d="M 3513 3500 
L 2247 1797 
L 3578 0 
L 2900 0 
L 1881 1375 
L 863 0 
L 184 0 
L 1544 1831 
L 300 3500 
L 978 3500 
L 1906 2253 
L 2834 3500 
L 3513 3500 
z
" transform="scale(0.015625)"/>
       <path id="DejaVuSans-2f" d="M 1625 4666 
L 2156 4666 
L 531 -594 
L 0 -594 
L 1625 4666 
z
" transform="scale(0.015625)"/>
       <path id="DejaVuSans-4c" d="M 628 4666 
L 1259 4666 
L 1259 531 
L 3531 531 
L 3531 0 
L 628 0 
L 628 4666 
z
" transform="scale(0.015625)"/>
      </defs>
      <use xlink:href="#DejaVuSans-78"/>
      <use xlink:href="#DejaVuSans-2f" x="59.179688"/>
      <use xlink:href="#DejaVuSans-4c" x="92.871094"/>
     </g>
    </g>
   </g>
   <g id="matplotlib.axis_2">
    <g id="ytick_1">
     <g id="line2d_10">
      <defs>
       <path id="m17a8ebf928" d="M 0 0 
L -3.5 0 
" style="stroke: #000000; stroke-width: 0.8"/>
      </defs>
      <g>
       <use xlink:href="#m17a8ebf928" x="34.240625" y="303.067475" style="stroke: #000000; stroke-width: 0.8"/>
      </g>
     </g>
     <g id="text_11">
      <!-- 0 -->
      <g style="fill: #d62728" transform="translate(20.878125 306.866694) scale(0.1 -0.1)">
       <use xlink:href="#DejaVuSans-30"/>
      </g>
     </g>
    </g>
    <g id="ytick_2">
     <g id="line2d_11">
      <g>
       <use xlink:href="#m17a8ebf928" x="34.240625" y="258.151166" style="stroke: #000000; stroke-width: 0.8"/>
      </g>
     </g>
     <g id="text_12">
      <!-- 1 -->
      <g style="fill: #d62728" transform="translate(20.878125 261.950385) scale(0.1 -0.1)">
       <use xlink:href="#DejaVuSans-31"/>
      </g>
     </g>
    </g>
    <g id="ytick_3">
     <g id="line2d_12">
      <g>
       <use xlink:href="#m17a8ebf928" x="34.240625" y="213.234857" style="stroke: #000000; stroke-width: 0.8"/>
      </g>
     </g>
     <g id="text_13">
      <!-- 2 -->
      <g style="fill: #d62728" transform="translate(20.878125 217.034076) scale(0.1 -0.1)">
       <use xlink:href="#DejaVuSans-32"/>
      </g>
     </g>
    </g>
    <g id="ytick_4">
     <g id="line2d_13">
      <g>
       <use xlink:href="#m17a8ebf928" x="34.240625" y="168.318548" style="stroke: #000000; stroke-width: 0.8"/>
      </g>
     </g>
     <g id="text_14">
      <!-- 3 -->
      <g style="fill: #d62728" transform="translate(20.878125 172.117767) scale(0.1 -0.1)">
       <defs>
        <path id="DejaVuSans-33" d="M 2597 2516 
Q 3050 2419 3304 2112 
Q 3559 1806 3559 1356 
Q 3559 666 3084 287 
Q 2609 -91 1734 -91 
Q 1441 -91 1130 -33 
Q 819 25 488 141 
L 488 750 
Q 750 597 1062 519 
Q 1375 441 1716 441 
Q 2309 441 2620 675 
Q 2931 909 2931 1356 
Q 2931 1769 2642 2001 
Q 2353 2234 1838 2234 
L 1294 2234 
L 1294 2753 
L 1863 2753 
Q 2328 2753 2575 2939 
Q 2822 3125 2822 3475 
Q 2822 3834 2567 4026 
Q 2313 4219 1838 4219 
Q 1578 4219 1281 4162 
Q 984 4106 628 3988 
L 628 4550 
Q 988 4650 1302 4700 
Q 1616 4750 1894 4750 
Q 2613 4750 3031 4423 
Q 3450 4097 3450 3541 
Q 3450 3153 3228 2886 
Q 3006 2619 2597 2516 
z
" transform="scale(0.015625)"/>
       </defs>
       <use xlink:href="#DejaVuSans-33"/>
      </g>
     </g>
    </g>
    <g id="ytick_5">
     <g id="line2d_14">
      <g>
       <use xlink:href="#m17a8ebf928" x="34.240625" y="123.402239" style="stroke: #000000; stroke-width: 0.8"/>
      </g>
     </g>
     <g id="text_15">
      <!-- 4 -->
      <g style="fill: #d62728" transform="translate(20.878125 127.201458) scale(0.1 -0.1)">
       <defs>
        <path id="DejaVuSans-34" d="M 2419 4116 
L 825 1625 
L 2419 1625 
L 2419 4116 
z
M 2253 4666 
L 3047 4666 
L 3047 1625 
L 3713 1625 
L 3713 1100 
L 3047 1100 
L 3047 0 
L 2419 0 
L 2419 1100 
L 313 1100 
L 313 1709 
L 2253 4666 
z
" transform="scale(0.015625)"/>
       </defs>
       <use xlink:href="#DejaVuSans-34"/>
      </g>
     </g>
    </g>
    <g id="ytick_6">
     <g id="line2d_15">
      <g>
       <use xlink:href="#m17a8ebf928" x="34.240625" y="78.48593" style="stroke: #000000; stroke-width: 0.8"/>
      </g>
     </g>
     <g id="text_16">
      <!-- 5 -->
      <g style="fill: #d62728" transform="translate(20.878125 82.285149) scale(0.1 -0.1)">
       <use xlink:href="#DejaVuSans-35"/>
      </g>
     </g>
    </g>
    <g id="ytick_7">
     <g id="line2d_16">
      <g>
       <use xlink:href="#m17a8ebf928" x="34.240625" y="33.569621" style="stroke: #000000; stroke-width: 0.8"/>
      </g>
     </g>
     <g id="text_17">
      <!-- 6 -->
      <g style="fill: #d62728" transform="translate(20.878125 37.36884) scale(0.1 -0.1)">
       <defs>
        <path id="DejaVuSans-36" d="M 2113 2584 
Q 1688 2584 1439 2293 
Q 1191 2003 1191 1497 
Q 1191 994 1439 701 
Q 1688 409 2113 409 
Q 2538 409 2786 701 
Q 3034 994 3034 1497 
Q 3034 2003 2786 2293 
Q 2538 2584 2113 2584 
z
M 3366 4563 
L 3366 3988 
Q 3128 4100 2886 4159 
Q 2644 4219 2406 4219 
Q 1781 4219 1451 3797 
Q 1122 3375 1075 2522 
Q 1259 2794 1537 2939 
Q 1816 3084 2150 3084 
Q 2853 3084 3261 2657 
Q 3669 2231 3669 1497 
Q 3669 778 3244 343 
Q 2819 -91 2113 -91 
Q 1303 -91 875 529 
Q 447 1150 447 2328 
Q 447 3434 972 4092 
Q 1497 4750 2381 4750 
Q 2619 4750 2861 4703 
Q 3103 4656 3366 4563 
z
" transform="scale(0.015625)"/>
       </defs>
       <use xlink:href="#DejaVuSans-36"/>
      </g>
     </g>
    </g>
    <g id="text_18">
     <!-- $\tau_{MFFP}/\tau_D$ -->
     <g style="fill: #d62728" transform="translate(14.798438 188.588125) rotate(-90) scale(0.1 -0.1)">
      <defs>
       <path id="DejaVuSans-Oblique-3c4" d="M 2103 638 
Q 2188 488 2525 488 
L 2800 488 
L 2706 0 
L 2363 0 
Q 1800 0 1600 300 
Q 1403 606 1534 1269 
L 1856 2925 
L 541 2925 
L 653 3500 
L 3881 3500 
L 3769 2925 
L 2444 2925 
L 2113 1234 
Q 2025 781 2103 638 
z
" transform="scale(0.015625)"/>
       <path id="DejaVuSans-Oblique-4d" d="M 1081 4666 
L 2028 4666 
L 2572 1522 
L 4378 4666 
L 5350 4666 
L 4441 0 
L 3828 0 
L 4622 4091 
L 2791 897 
L 2175 897 
L 1581 4103 
L 788 0 
L 172 0 
L 1081 4666 
z
" transform="scale(0.015625)"/>
       <path id="DejaVuSans-Oblique-46" d="M 1081 4666 
L 3756 4666 
L 3653 4134 
L 1606 4134 
L 1338 2759 
L 3188 2759 
L 3084 2228 
L 1234 2228 
L 800 0 
L 172 0 
L 1081 4666 
z
" transform="scale(0.015625)"/>
       <path id="DejaVuSans-Oblique-50" d="M 1081 4666 
L 2541 4666 
Q 3178 4666 3512 4369 
Q 3847 4072 3847 3500 
Q 3847 2731 3353 2303 
Q 2859 1875 1966 1875 
L 1172 1875 
L 806 0 
L 172 0 
L 1081 4666 
z
M 1613 4147 
L 1275 2394 
L 2069 2394 
Q 2606 2394 2893 2669 
Q 3181 2944 3181 3456 
Q 3181 3784 2986 3965 
Q 2791 4147 2438 4147 
L 1613 4147 
z
" transform="scale(0.015625)"/>
       <path id="DejaVuSans-Oblique-44" d="M 1081 4666 
L 2438 4666 
Q 3519 4666 4070 4208 
Q 4622 3750 4622 2847 
Q 4622 2250 4412 1698 
Q 4203 1147 3834 769 
Q 3463 381 2891 190 
Q 2319 0 1538 0 
L 172 0 
L 1081 4666 
z
M 1613 4147 
L 909 519 
L 1734 519 
Q 2794 519 3375 1128 
Q 3956 1738 3956 2847 
Q 3956 3519 3581 3833 
Q 3206 4147 2406 4147 
L 1613 4147 
z
" transform="scale(0.015625)"/>
      </defs>
      <use xlink:href="#DejaVuSans-Oblique-3c4" transform="translate(0 0.09375)"/>
      <use xlink:href="#DejaVuSans-Oblique-4d" transform="translate(60.205078 -16.3125) scale(0.7)"/>
      <use xlink:href="#DejaVuSans-Oblique-46" transform="translate(120.600586 -16.3125) scale(0.7)"/>
      <use xlink:href="#DejaVuSans-Oblique-46" transform="translate(160.864258 -16.3125) scale(0.7)"/>
      <use xlink:href="#DejaVuSans-Oblique-50" transform="translate(201.12793 -16.3125) scale(0.7)"/>
      <use xlink:href="#DejaVuSans-2f" transform="translate(246.074219 0.09375)"/>
      <use xlink:href="#DejaVuSans-Oblique-3c4" transform="translate(279.765625 0.09375)"/>
      <use xlink:href="#DejaVuSans-Oblique-44" transform="translate(339.970703 -16.3125) scale(0.7)"/>
     </g>
    </g>
   </g>
   <g id="patch_3">
    <path d="M 34.240625 315.158125 
L 34.240625 22.318125 
" style="fill: none; stroke: #000000; stroke-width: 0.8; stroke-linejoin: miter; stroke-linecap: square"/>
   </g>
   <g id="patch_4">
    <path d="M 397.901225 315.158125 
L 397.901225 22.318125 
" style="fill: none; stroke: #000000; stroke-width: 0.8; stroke-linejoin: miter; stroke-linecap: square"/>
   </g>
   <g id="patch_5">
    <path d="M 34.240625 315.158125 
L 397.901225 315.158125 
" style="fill: none; stroke: #000000; stroke-width: 0.8; stroke-linejoin: miter; stroke-linecap: square"/>
   </g>
   <g id="patch_6">
    <path d="M 34.240625 22.318125 
L 397.901225 22.318125 
" style="fill: none; stroke: #000000; stroke-width: 0.8; stroke-linejoin: miter; stroke-linecap: square"/>
   </g>
   <g id="legend_1">
    <g id="patch_7">
     <path d="M 274.5856 44.99625 
L 390.901225 44.99625 
Q 392.901225 44.99625 392.901225 42.99625 
L 392.901225 29.318125 
Q 392.901225 27.318125 390.901225 27.318125 
L 274.5856 27.318125 
Q 272.5856 27.318125 272.5856 29.318125 
L 272.5856 42.99625 
Q 272.5856 44.99625 274.5856 44.99625 
z
" style="fill: #ffffff; opacity: 0.8; stroke: #cccccc; stroke-linejoin: miter"/>
    </g>
    <g id="PathCollection_2">
     <g>
      <use xlink:href="#ma008bcdc3f" x="286.5856" y="36.291563" style="fill: #d62728; stroke: #d62728; stroke-width: 1.5"/>
     </g>
    </g>
    <g id="text_19">
     <!-- Backward MFFPT -->
     <g transform="translate(304.5856 38.916563) scale(0.1 -0.1)">
      <defs>
       <path id="DejaVuSans-42" d="M 1259 2228 
L 1259 519 
L 2272 519 
Q 2781 519 3026 730 
Q 3272 941 3272 1375 
Q 3272 1813 3026 2020 
Q 2781 2228 2272 2228 
L 1259 2228 
z
M 1259 4147 
L 1259 2741 
L 2194 2741 
Q 2656 2741 2882 2914 
Q 3109 3088 3109 3444 
Q 3109 3797 2882 3972 
Q 2656 4147 2194 4147 
L 1259 4147 
z
M 628 4666 
L 2241 4666 
Q 2963 4666 3353 4366 
Q 3744 4066 3744 3513 
Q 3744 3084 3544 2831 
Q 3344 2578 2956 2516 
Q 3422 2416 3680 2098 
Q 3938 1781 3938 1306 
Q 3938 681 3513 340 
Q 3088 0 2303 0 
L 628 0 
L 628 4666 
z
" transform="scale(0.015625)"/>
       <path id="DejaVuSans-61" d="M 2194 1759 
Q 1497 1759 1228 1600 
Q 959 1441 959 1056 
Q 959 750 1161 570 
Q 1363 391 1709 391 
Q 2188 391 2477 730 
Q 2766 1069 2766 1631 
L 2766 1759 
L 2194 1759 
z
M 3341 1997 
L 3341 0 
L 2766 0 
L 2766 531 
Q 2569 213 2275 61 
Q 1981 -91 1556 -91 
Q 1019 -91 701 211 
Q 384 513 384 1019 
Q 384 1609 779 1909 
Q 1175 2209 1959 2209 
L 2766 2209 
L 2766 2266 
Q 2766 2663 2505 2880 
Q 2244 3097 1772 3097 
Q 1472 3097 1187 3025 
Q 903 2953 641 2809 
L 641 3341 
Q 956 3463 1253 3523 
Q 1550 3584 1831 3584 
Q 2591 3584 2966 3190 
Q 3341 2797 3341 1997 
z
" transform="scale(0.015625)"/>
       <path id="DejaVuSans-63" d="M 3122 3366 
L 3122 2828 
Q 2878 2963 2633 3030 
Q 2388 3097 2138 3097 
Q 1578 3097 1268 2742 
Q 959 2388 959 1747 
Q 959 1106 1268 751 
Q 1578 397 2138 397 
Q 2388 397 2633 464 
Q 2878 531 3122 666 
L 3122 134 
Q 2881 22 2623 -34 
Q 2366 -91 2075 -91 
Q 1284 -91 818 406 
Q 353 903 353 1747 
Q 353 2603 823 3093 
Q 1294 3584 2113 3584 
Q 2378 3584 2631 3529 
Q 2884 3475 3122 3366 
z
" transform="scale(0.015625)"/>
       <path id="DejaVuSans-6b" d="M 581 4863 
L 1159 4863 
L 1159 1991 
L 2875 3500 
L 3609 3500 
L 1753 1863 
L 3688 0 
L 2938 0 
L 1159 1709 
L 1159 0 
L 581 0 
L 581 4863 
z
" transform="scale(0.015625)"/>
       <path id="DejaVuSans-77" d="M 269 3500 
L 844 3500 
L 1563 769 
L 2278 3500 
L 2956 3500 
L 3675 769 
L 4391 3500 
L 4966 3500 
L 4050 0 
L 3372 0 
L 2619 2869 
L 1863 0 
L 1184 0 
L 269 3500 
z
" transform="scale(0.015625)"/>
       <path id="DejaVuSans-72" d="M 2631 2963 
Q 2534 3019 2420 3045 
Q 2306 3072 2169 3072 
Q 1681 3072 1420 2755 
Q 1159 2438 1159 1844 
L 1159 0 
L 581 0 
L 581 3500 
L 1159 3500 
L 1159 2956 
Q 1341 3275 1631 3429 
Q 1922 3584 2338 3584 
Q 2397 3584 2469 3576 
Q 2541 3569 2628 3553 
L 2631 2963 
z
" transform="scale(0.015625)"/>
       <path id="DejaVuSans-64" d="M 2906 2969 
L 2906 4863 
L 3481 4863 
L 3481 0 
L 2906 0 
L 2906 525 
Q 2725 213 2448 61 
Q 2172 -91 1784 -91 
Q 1150 -91 751 415 
Q 353 922 353 1747 
Q 353 2572 751 3078 
Q 1150 3584 1784 3584 
Q 2172 3584 2448 3432 
Q 2725 3281 2906 2969 
z
M 947 1747 
Q 947 1113 1208 752 
Q 1469 391 1925 391 
Q 2381 391 2643 752 
Q 2906 1113 2906 1747 
Q 2906 2381 2643 2742 
Q 2381 3103 1925 3103 
Q 1469 3103 1208 2742 
Q 947 2381 947 1747 
z
" transform="scale(0.015625)"/>
       <path id="DejaVuSans-20" transform="scale(0.015625)"/>
       <path id="DejaVuSans-4d" d="M 628 4666 
L 1569 4666 
L 2759 1491 
L 3956 4666 
L 4897 4666 
L 4897 0 
L 4281 0 
L 4281 4097 
L 3078 897 
L 2444 897 
L 1241 4097 
L 1241 0 
L 628 0 
L 628 4666 
z
" transform="scale(0.015625)"/>
       <path id="DejaVuSans-46" d="M 628 4666 
L 3309 4666 
L 3309 4134 
L 1259 4134 
L 1259 2759 
L 3109 2759 
L 3109 2228 
L 1259 2228 
L 1259 0 
L 628 0 
L 628 4666 
z
" transform="scale(0.015625)"/>
       <path id="DejaVuSans-50" d="M 1259 4147 
L 1259 2394 
L 2053 2394 
Q 2494 2394 2734 2622 
Q 2975 2850 2975 3272 
Q 2975 3691 2734 3919 
Q 2494 4147 2053 4147 
L 1259 4147 
z
M 628 4666 
L 2053 4666 
Q 2838 4666 3239 4311 
Q 3641 3956 3641 3272 
Q 3641 2581 3239 2228 
Q 2838 1875 2053 1875 
L 1259 1875 
L 1259 0 
L 628 0 
L 628 4666 
z
" transform="scale(0.015625)"/>
       <path id="DejaVuSans-54" d="M -19 4666 
L 3928 4666 
L 3928 4134 
L 2272 4134 
L 2272 0 
L 1638 0 
L 1638 4134 
L -19 4134 
L -19 4666 
z
" transform="scale(0.015625)"/>
      </defs>
      <use xlink:href="#DejaVuSans-42"/>
      <use xlink:href="#DejaVuSans-61" x="68.603516"/>
      <use xlink:href="#DejaVuSans-63" x="129.882812"/>
      <use xlink:href="#DejaVuSans-6b" x="184.863281"/>
      <use xlink:href="#DejaVuSans-77" x="242.773438"/>
      <use xlink:href="#DejaVuSans-61" x="324.560547"/>
      <use xlink:href="#DejaVuSans-72" x="385.839844"/>
      <use xlink:href="#DejaVuSans-64" x="425.203125"/>
      <use xlink:href="#DejaVuSans-20" x="488.679688"/>
      <use xlink:href="#DejaVuSans-4d" x="520.466797"/>
      <use xlink:href="#DejaVuSans-46" x="606.746094"/>
      <use xlink:href="#DejaVuSans-46" x="664.265625"/>
      <use xlink:href="#DejaVuSans-50" x="721.785156"/>
      <use xlink:href="#DejaVuSans-54" x="782.087891"/>
     </g>
    </g>
   </g>
  </g>
  <g id="axes_2">
   <g id="PathCollection_3">
    <defs>
     <path id="m0d786e07b8" d="M -3 3 
L 3 -3 
M -3 -3 
L 3 3 
" style="stroke: #1f77b4; stroke-width: 1.5"/>
    </defs>
    <g clip-path="url(#p31307b3f7a)">
     <use xlink:href="#m0d786e07b8" x="381.371198" y="157.19422" style="fill: #1f77b4; stroke: #1f77b4; stroke-width: 1.5"/>
     <use xlink:href="#m0d786e07b8" x="374.624248" y="142.376783" style="fill: #1f77b4; stroke: #1f77b4; stroke-width: 1.5"/>
     <use xlink:href="#m0d786e07b8" x="367.877298" y="122.745146" style="fill: #1f77b4; stroke: #1f77b4; stroke-width: 1.5"/>
     <use xlink:href="#m0d786e07b8" x="361.130348" y="107.05001" style="fill: #1f77b4; stroke: #1f77b4; stroke-width: 1.5"/>
     <use xlink:href="#m0d786e07b8" x="354.383398" y="91.068112" style="fill: #1f77b4; stroke: #1f77b4; stroke-width: 1.5"/>
     <use xlink:href="#m0d786e07b8" x="347.636448" y="77.851425" style="fill: #1f77b4; stroke: #1f77b4; stroke-width: 1.5"/>
     <use xlink:href="#m0d786e07b8" x="340.889498" y="67.792541" style="fill: #1f77b4; stroke: #1f77b4; stroke-width: 1.5"/>
     <use xlink:href="#m0d786e07b8" x="334.142548" y="54.097916" style="fill: #1f77b4; stroke: #1f77b4; stroke-width: 1.5"/>
     <use xlink:href="#m0d786e07b8" x="327.395598" y="46.814486" style="fill: #1f77b4; stroke: #1f77b4; stroke-width: 1.5"/>
     <use xlink:href="#m0d786e07b8" x="320.648649" y="42.755428" style="fill: #1f77b4; stroke: #1f77b4; stroke-width: 1.5"/>
     <use xlink:href="#m0d786e07b8" x="313.901699" y="35.629034" style="fill: #1f77b4; stroke: #1f77b4; stroke-width: 1.5"/>
     <use xlink:href="#m0d786e07b8" x="307.154749" y="35.688776" style="fill: #1f77b4; stroke: #1f77b4; stroke-width: 1.5"/>
     <use xlink:href="#m0d786e07b8" x="300.407799" y="39.754661" style="fill: #1f77b4; stroke: #1f77b4; stroke-width: 1.5"/>
     <use xlink:href="#m0d786e07b8" x="293.660849" y="47.190008" style="fill: #1f77b4; stroke: #1f77b4; stroke-width: 1.5"/>
     <use xlink:href="#m0d786e07b8" x="286.913899" y="47.203663" style="fill: #1f77b4; stroke: #1f77b4; stroke-width: 1.5"/>
     <use xlink:href="#m0d786e07b8" x="280.166949" y="54.575854" style="fill: #1f77b4; stroke: #1f77b4; stroke-width: 1.5"/>
     <use xlink:href="#m0d786e07b8" x="273.419999" y="66.671094" style="fill: #1f77b4; stroke: #1f77b4; stroke-width: 1.5"/>
     <use xlink:href="#m0d786e07b8" x="266.673049" y="77.484437" style="fill: #1f77b4; stroke: #1f77b4; stroke-width: 1.5"/>
     <use xlink:href="#m0d786e07b8" x="259.926099" y="100.066998" style="fill: #1f77b4; stroke: #1f77b4; stroke-width: 1.5"/>
     <use xlink:href="#m0d786e07b8" x="253.179149" y="120.657582" style="fill: #1f77b4; stroke: #1f77b4; stroke-width: 1.5"/>
     <use xlink:href="#m0d786e07b8" x="246.4322" y="142.549182" style="fill: #1f77b4; stroke: #1f77b4; stroke-width: 1.5"/>
     <use xlink:href="#m0d786e07b8" x="239.68525" y="159.917612" style="fill: #1f77b4; stroke: #1f77b4; stroke-width: 1.5"/>
     <use xlink:href="#m0d786e07b8" x="232.9383" y="177.644155" style="fill: #1f77b4; stroke: #1f77b4; stroke-width: 1.5"/>
     <use xlink:href="#m0d786e07b8" x="226.19135" y="199.712591" style="fill: #1f77b4; stroke: #1f77b4; stroke-width: 1.5"/>
     <use xlink:href="#m0d786e07b8" x="219.4444" y="223.094674" style="fill: #1f77b4; stroke: #1f77b4; stroke-width: 1.5"/>
     <use xlink:href="#m0d786e07b8" x="212.69745" y="253.386713" style="fill: #1f77b4; stroke: #1f77b4; stroke-width: 1.5"/>
     <use xlink:href="#m0d786e07b8" x="205.9505" y="271.651276" style="fill: #1f77b4; stroke: #1f77b4; stroke-width: 1.5"/>
     <use xlink:href="#m0d786e07b8" x="199.20355" y="290.0555" style="fill: #1f77b4; stroke: #1f77b4; stroke-width: 1.5"/>
     <use xlink:href="#m0d786e07b8" x="192.4566" y="300.06741" style="fill: #1f77b4; stroke: #1f77b4; stroke-width: 1.5"/>
     <use xlink:href="#m0d786e07b8" x="185.70965" y="291.443244" style="fill: #1f77b4; stroke: #1f77b4; stroke-width: 1.5"/>
     <use xlink:href="#m0d786e07b8" x="178.962701" y="280.594346" style="fill: #1f77b4; stroke: #1f77b4; stroke-width: 1.5"/>
     <use xlink:href="#m0d786e07b8" x="172.215751" y="265.886152" style="fill: #1f77b4; stroke: #1f77b4; stroke-width: 1.5"/>
     <use xlink:href="#m0d786e07b8" x="165.468801" y="261.758305" style="fill: #1f77b4; stroke: #1f77b4; stroke-width: 1.5"/>
     <use xlink:href="#m0d786e07b8" x="158.721851" y="259.956139" style="fill: #1f77b4; stroke: #1f77b4; stroke-width: 1.5"/>
     <use xlink:href="#m0d786e07b8" x="151.974901" y="246.458322" style="fill: #1f77b4; stroke: #1f77b4; stroke-width: 1.5"/>
     <use xlink:href="#m0d786e07b8" x="145.227951" y="244.148858" style="fill: #1f77b4; stroke: #1f77b4; stroke-width: 1.5"/>
     <use xlink:href="#m0d786e07b8" x="138.481001" y="234.498099" style="fill: #1f77b4; stroke: #1f77b4; stroke-width: 1.5"/>
     <use xlink:href="#m0d786e07b8" x="131.734051" y="235.940788" style="fill: #1f77b4; stroke: #1f77b4; stroke-width: 1.5"/>
     <use xlink:href="#m0d786e07b8" x="124.987101" y="238.04269" style="fill: #1f77b4; stroke: #1f77b4; stroke-width: 1.5"/>
     <use xlink:href="#m0d786e07b8" x="118.240151" y="258.632251" style="fill: #1f77b4; stroke: #1f77b4; stroke-width: 1.5"/>
     <use xlink:href="#m0d786e07b8" x="111.493201" y="255.337211" style="fill: #1f77b4; stroke: #1f77b4; stroke-width: 1.5"/>
     <use xlink:href="#m0d786e07b8" x="104.746252" y="264.416834" style="fill: #1f77b4; stroke: #1f77b4; stroke-width: 1.5"/>
     <use xlink:href="#m0d786e07b8" x="97.999302" y="271.761885" style="fill: #1f77b4; stroke: #1f77b4; stroke-width: 1.5"/>
     <use xlink:href="#m0d786e07b8" x="91.252352" y="282.775449" style="fill: #1f77b4; stroke: #1f77b4; stroke-width: 1.5"/>
     <use xlink:href="#m0d786e07b8" x="84.505402" y="296.986076" style="fill: #1f77b4; stroke: #1f77b4; stroke-width: 1.5"/>
     <use xlink:href="#m0d786e07b8" x="77.758452" y="296.371739" style="fill: #1f77b4; stroke: #1f77b4; stroke-width: 1.5"/>
     <use xlink:href="#m0d786e07b8" x="71.011502" y="276.500809" style="fill: #1f77b4; stroke: #1f77b4; stroke-width: 1.5"/>
     <use xlink:href="#m0d786e07b8" x="64.264552" y="267.420161" style="fill: #1f77b4; stroke: #1f77b4; stroke-width: 1.5"/>
     <use xlink:href="#m0d786e07b8" x="57.517602" y="245.295226" style="fill: #1f77b4; stroke: #1f77b4; stroke-width: 1.5"/>
    </g>
   </g>
   <g id="matplotlib.axis_3">
    <g id="ytick_8">
     <g id="line2d_17">
      <defs>
       <path id="m6a2a9fe1d9" d="M 0 0 
L 3.5 0 
" style="stroke: #000000; stroke-width: 0.8"/>
      </defs>
      <g>
       <use xlink:href="#m6a2a9fe1d9" x="397.901225" y="301.847216" style="stroke: #000000; stroke-width: 0.8"/>
      </g>
     </g>
     <g id="text_20">
      <!-- 0.0 -->
      <g style="fill: #1f77b4" transform="translate(404.901225 305.646435) scale(0.1 -0.1)">
       <use xlink:href="#DejaVuSans-30"/>
       <use xlink:href="#DejaVuSans-2e" x="63.623047"/>
       <use xlink:href="#DejaVuSans-30" x="95.410156"/>
      </g>
     </g>
    </g>
    <g id="ytick_9">
     <g id="line2d_18">
      <g>
       <use xlink:href="#m6a2a9fe1d9" x="397.901225" y="267.708802" style="stroke: #000000; stroke-width: 0.8"/>
      </g>
     </g>
     <g id="text_21">
      <!-- 0.2 -->
      <g style="fill: #1f77b4" transform="translate(404.901225 271.50802) scale(0.1 -0.1)">
       <use xlink:href="#DejaVuSans-30"/>
       <use xlink:href="#DejaVuSans-2e" x="63.623047"/>
       <use xlink:href="#DejaVuSans-32" x="95.410156"/>
      </g>
     </g>
    </g>
    <g id="ytick_10">
     <g id="line2d_19">
      <g>
       <use xlink:href="#m6a2a9fe1d9" x="397.901225" y="233.570387" style="stroke: #000000; stroke-width: 0.8"/>
      </g>
     </g>
     <g id="text_22">
      <!-- 0.4 -->
      <g style="fill: #1f77b4" transform="translate(404.901225 237.369606) scale(0.1 -0.1)">
       <use xlink:href="#DejaVuSans-30"/>
       <use xlink:href="#DejaVuSans-2e" x="63.623047"/>
       <use xlink:href="#DejaVuSans-34" x="95.410156"/>
      </g>
     </g>
    </g>
    <g id="ytick_11">
     <g id="line2d_20">
      <g>
       <use xlink:href="#m6a2a9fe1d9" x="397.901225" y="199.431973" style="stroke: #000000; stroke-width: 0.8"/>
      </g>
     </g>
     <g id="text_23">
      <!-- 0.6 -->
      <g style="fill: #1f77b4" transform="translate(404.901225 203.231192) scale(0.1 -0.1)">
       <use xlink:href="#DejaVuSans-30"/>
       <use xlink:href="#DejaVuSans-2e" x="63.623047"/>
       <use xlink:href="#DejaVuSans-36" x="95.410156"/>
      </g>
     </g>
    </g>
    <g id="ytick_12">
     <g id="line2d_21">
      <g>
       <use xlink:href="#m6a2a9fe1d9" x="397.901225" y="165.293559" style="stroke: #000000; stroke-width: 0.8"/>
      </g>
     </g>
     <g id="text_24">
      <!-- 0.8 -->
      <g style="fill: #1f77b4" transform="translate(404.901225 169.092778) scale(0.1 -0.1)">
       <defs>
        <path id="DejaVuSans-38" d="M 2034 2216 
Q 1584 2216 1326 1975 
Q 1069 1734 1069 1313 
Q 1069 891 1326 650 
Q 1584 409 2034 409 
Q 2484 409 2743 651 
Q 3003 894 3003 1313 
Q 3003 1734 2745 1975 
Q 2488 2216 2034 2216 
z
M 1403 2484 
Q 997 2584 770 2862 
Q 544 3141 544 3541 
Q 544 4100 942 4425 
Q 1341 4750 2034 4750 
Q 2731 4750 3128 4425 
Q 3525 4100 3525 3541 
Q 3525 3141 3298 2862 
Q 3072 2584 2669 2484 
Q 3125 2378 3379 2068 
Q 3634 1759 3634 1313 
Q 3634 634 3220 271 
Q 2806 -91 2034 -91 
Q 1263 -91 848 271 
Q 434 634 434 1313 
Q 434 1759 690 2068 
Q 947 2378 1403 2484 
z
M 1172 3481 
Q 1172 3119 1398 2916 
Q 1625 2713 2034 2713 
Q 2441 2713 2670 2916 
Q 2900 3119 2900 3481 
Q 2900 3844 2670 4047 
Q 2441 4250 2034 4250 
Q 1625 4250 1398 4047 
Q 1172 3844 1172 3481 
z
" transform="scale(0.015625)"/>
       </defs>
       <use xlink:href="#DejaVuSans-30"/>
       <use xlink:href="#DejaVuSans-2e" x="63.623047"/>
       <use xlink:href="#DejaVuSans-38" x="95.410156"/>
      </g>
     </g>
    </g>
    <g id="ytick_13">
     <g id="line2d_22">
      <g>
       <use xlink:href="#m6a2a9fe1d9" x="397.901225" y="131.155145" style="stroke: #000000; stroke-width: 0.8"/>
      </g>
     </g>
     <g id="text_25">
      <!-- 1.0 -->
      <g style="fill: #1f77b4" transform="translate(404.901225 134.954364) scale(0.1 -0.1)">
       <use xlink:href="#DejaVuSans-31"/>
       <use xlink:href="#DejaVuSans-2e" x="63.623047"/>
       <use xlink:href="#DejaVuSans-30" x="95.410156"/>
      </g>
     </g>
    </g>
    <g id="ytick_14">
     <g id="line2d_23">
      <g>
       <use xlink:href="#m6a2a9fe1d9" x="397.901225" y="97.016731" style="stroke: #000000; stroke-width: 0.8"/>
      </g>
     </g>
     <g id="text_26">
      <!-- 1.2 -->
      <g style="fill: #1f77b4" transform="translate(404.901225 100.815949) scale(0.1 -0.1)">
       <use xlink:href="#DejaVuSans-31"/>
       <use xlink:href="#DejaVuSans-2e" x="63.623047"/>
       <use xlink:href="#DejaVuSans-32" x="95.410156"/>
      </g>
     </g>
    </g>
    <g id="ytick_15">
     <g id="line2d_24">
      <g>
       <use xlink:href="#m6a2a9fe1d9" x="397.901225" y="62.878316" style="stroke: #000000; stroke-width: 0.8"/>
      </g>
     </g>
     <g id="text_27">
      <!-- 1.4 -->
      <g style="fill: #1f77b4" transform="translate(404.901225 66.677535) scale(0.1 -0.1)">
       <use xlink:href="#DejaVuSans-31"/>
       <use xlink:href="#DejaVuSans-2e" x="63.623047"/>
       <use xlink:href="#DejaVuSans-34" x="95.410156"/>
      </g>
     </g>
    </g>
    <g id="ytick_16">
     <g id="line2d_25">
      <g>
       <use xlink:href="#m6a2a9fe1d9" x="397.901225" y="28.739902" style="stroke: #000000; stroke-width: 0.8"/>
      </g>
     </g>
     <g id="text_28">
      <!-- 1.6 -->
      <g style="fill: #1f77b4" transform="translate(404.901225 32.539121) scale(0.1 -0.1)">
       <use xlink:href="#DejaVuSans-31"/>
       <use xlink:href="#DejaVuSans-2e" x="63.623047"/>
       <use xlink:href="#DejaVuSans-36" x="95.410156"/>
      </g>
     </g>
    </g>
    <g id="text_29">
     <!-- $\gamma\cdot\frac{L^2}{\tau_D\beta}$ -->
     <g style="fill: #1f77b4" transform="translate(435.50435 182.188125) rotate(-90) scale(0.1 -0.1)">
      <defs>
       <path id="DejaVuSans-Oblique-3b3" d="M 1491 2950 
L 1838 788 
L 3456 3500 
L 4066 3500 
L 1972 0 
L 1713 -1331 
L 1138 -1331 
L 1397 0 
L 988 2613 
Q 925 3006 628 3006 
L 475 3006 
L 569 3500 
L 788 3500 
Q 1403 3500 1491 2950 
z
" transform="scale(0.015625)"/>
       <path id="DejaVuSans-22c5" d="M 684 2619 
L 1344 2619 
L 1344 1825 
L 684 1825 
L 684 2619 
z
" transform="scale(0.015625)"/>
       <path id="DejaVuSans-Oblique-4c" d="M 1075 4666 
L 1709 4666 
L 909 525 
L 3181 525 
L 3078 0 
L 172 0 
L 1075 4666 
z
" transform="scale(0.015625)"/>
       <path id="DejaVuSans-Oblique-3b2" d="M 872 216 
L 572 -1331 
L -6 -1331 
L 928 3478 
Q 1206 4903 2538 4903 
Q 3888 4903 3659 3700 
Q 3503 2844 2894 2531 
Q 3713 2250 3553 1416 
Q 3272 -69 1759 -66 
Q 1097 -63 872 216 
z
M 1019 966 
Q 1259 422 1875 425 
Q 2775 425 2966 1406 
Q 3138 2288 1675 2219 
L 1778 2750 
Q 2909 2731 3106 3750 
Q 3241 4438 2509 4434 
Q 1691 4434 1503 3459 
L 1019 966 
z
" transform="scale(0.015625)"/>
      </defs>
      <use xlink:href="#DejaVuSans-Oblique-3b3" transform="translate(0 0.039062)"/>
      <use xlink:href="#DejaVuSans-22c5" transform="translate(78.662109 0.039062)"/>
      <use xlink:href="#DejaVuSans-Oblique-4c" transform="translate(154.931641 43.835938) scale(0.7)"/>
      <use xlink:href="#DejaVuSans-32" transform="translate(198.842404 70.632812) scale(0.49)"/>
      <use xlink:href="#DejaVuSans-Oblique-3c4" transform="translate(129.931641 -41.040625) scale(0.7)"/>
      <use xlink:href="#DejaVuSans-Oblique-44" transform="translate(172.075195 -52.525) scale(0.49)"/>
      <use xlink:href="#DejaVuSans-Oblique-3b2" transform="translate(211.720215 -41.040625) scale(0.7)"/>
      <path d="M 129.931641 18.835938 
L 129.931641 25.085938 
L 256.393066 25.085938 
L 256.393066 18.835938 
L 129.931641 18.835938 
z
"/>
     </g>
    </g>
   </g>
   <g id="line2d_26">
    <path d="M 50.770652 300.798047 
L 57.517602 297.820085 
L 64.264552 293.159781 
L 71.011502 287.053102 
L 77.758452 279.725523 
L 84.505402 271.392036 
L 91.252352 262.257143 
L 97.999302 252.514859 
L 104.746252 242.348712 
L 111.493201 231.931744 
L 118.240151 221.426507 
L 124.987101 210.985068 
L 131.734051 200.749006 
L 138.481001 190.849412 
L 145.227951 181.406891 
L 151.974901 172.531558 
L 158.721851 164.323045 
L 165.468801 156.870492 
L 172.215751 150.252556 
L 178.962701 144.537403 
L 185.70965 139.782714 
L 192.4566 136.035682 
L 199.20355 133.333012 
L 205.9505 131.700922 
L 212.69745 131.155145 
L 219.4444 131.700922 
L 226.19135 133.333012 
L 232.9383 136.035682 
L 239.68525 139.782714 
L 246.4322 144.537403 
L 253.179149 150.252556 
L 259.926099 156.870492 
L 266.673049 164.323045 
L 273.419999 172.531558 
L 280.166949 181.406891 
L 286.913899 190.849412 
L 293.660849 200.749006 
L 300.407799 210.985068 
L 307.154749 221.426507 
L 313.901699 231.931744 
L 320.648649 242.348712 
L 327.395598 252.514859 
L 334.142548 262.257143 
L 340.889498 271.392036 
L 347.636448 279.725523 
L 354.383398 287.053102 
L 361.130348 293.159781 
L 367.877298 297.820085 
L 374.624248 300.798047 
L 381.371198 301.847216 
" clip-path="url(#p31307b3f7a)" style="fill: none; stroke: #1f77b4; stroke-opacity: 0.3; stroke-linecap: square"/>
   </g>
   <g id="line2d_27">
    <path d="M 50.770652 237.89457 
L 57.517602 258.950572 
L 64.264552 279.337123 
L 71.011502 298.732713 
L 77.758452 286.862969 
L 84.505402 270.346488 
L 91.252352 255.67275 
L 97.999302 243.073169 
L 104.746252 232.746448 
L 111.493201 224.855445 
L 118.240151 219.524606 
L 124.987101 216.838002 
L 131.734051 216.838002 
L 138.481001 219.524606 
L 145.227951 224.855445 
L 151.974901 232.746448 
L 158.721851 243.073169 
L 165.468801 255.67275 
L 172.215751 270.346488 
L 178.962701 286.862969 
L 185.70965 298.732713 
L 192.4566 279.337123 
L 199.20355 258.950572 
L 205.9505 237.89457 
L 212.69745 216.50118 
L 219.4444 195.107791 
L 226.19135 174.051788 
L 232.9383 153.665238 
L 239.68525 134.269648 
L 246.4322 116.170898 
L 253.179149 99.654417 
L 259.926099 84.980679 
L 266.673049 72.381098 
L 273.419999 62.054377 
L 280.166949 54.163374 
L 286.913899 48.832535 
L 293.660849 46.145931 
L 300.407799 46.145931 
L 307.154749 48.832535 
L 313.901699 54.163374 
L 320.648649 62.054377 
L 327.395598 72.381098 
L 334.142548 84.980679 
L 340.889498 99.654417 
L 347.636448 116.170898 
L 354.383398 134.269648 
L 361.130348 153.665238 
L 367.877298 174.051788 
L 374.624248 195.107791 
L 381.371198 216.50118 
" clip-path="url(#p31307b3f7a)" style="fill: none; stroke-dasharray: 3.7,1.6; stroke-dashoffset: 0; stroke: #0000ff"/>
   </g>
   <g id="patch_8">
    <path d="M 34.240625 315.158125 
L 34.240625 22.318125 
" style="fill: none; stroke: #000000; stroke-width: 0.8; stroke-linejoin: miter; stroke-linecap: square"/>
   </g>
   <g id="patch_9">
    <path d="M 397.901225 315.158125 
L 397.901225 22.318125 
" style="fill: none; stroke: #000000; stroke-width: 0.8; stroke-linejoin: miter; stroke-linecap: square"/>
   </g>
   <g id="patch_10">
    <path d="M 34.240625 315.158125 
L 397.901225 315.158125 
" style="fill: none; stroke: #000000; stroke-width: 0.8; stroke-linejoin: miter; stroke-linecap: square"/>
   </g>
   <g id="patch_11">
    <path d="M 34.240625 22.318125 
L 397.901225 22.318125 
" style="fill: none; stroke: #000000; stroke-width: 0.8; stroke-linejoin: miter; stroke-linecap: square"/>
   </g>
   <g id="text_30">
    <!-- $\tau_\Gamma/\tau_D =0, \tau_m/\tau_D=0.001$ -->
    <g transform="translate(145.210925 16.318125) scale(0.12 -0.12)">
     <defs>
      <path id="DejaVuSans-393" d="M 628 0 
L 628 4666 
L 3531 4666 
L 3531 4134 
L 1259 4134 
L 1259 0 
L 628 0 
z
" transform="scale(0.015625)"/>
      <path id="DejaVuSans-3d" d="M 678 2906 
L 4684 2906 
L 4684 2381 
L 678 2381 
L 678 2906 
z
M 678 1631 
L 4684 1631 
L 4684 1100 
L 678 1100 
L 678 1631 
z
" transform="scale(0.015625)"/>
      <path id="DejaVuSans-2c" d="M 750 794 
L 1409 794 
L 1409 256 
L 897 -744 
L 494 -744 
L 750 256 
L 750 794 
z
" transform="scale(0.015625)"/>
      <path id="DejaVuSans-Oblique-6d" d="M 5747 2113 
L 5338 0 
L 4763 0 
L 5166 2094 
Q 5191 2228 5203 2325 
Q 5216 2422 5216 2491 
Q 5216 2772 5059 2928 
Q 4903 3084 4622 3084 
Q 4203 3084 3875 2770 
Q 3547 2456 3450 1953 
L 3066 0 
L 2491 0 
L 2900 2094 
Q 2925 2209 2937 2307 
Q 2950 2406 2950 2484 
Q 2950 2769 2794 2926 
Q 2638 3084 2363 3084 
Q 1938 3084 1609 2770 
Q 1281 2456 1184 1953 
L 800 0 
L 225 0 
L 909 3500 
L 1484 3500 
L 1375 2956 
Q 1609 3263 1923 3423 
Q 2238 3584 2597 3584 
Q 2978 3584 3223 3384 
Q 3469 3184 3519 2828 
Q 3781 3197 4126 3390 
Q 4472 3584 4856 3584 
Q 5306 3584 5551 3325 
Q 5797 3066 5797 2591 
Q 5797 2488 5784 2364 
Q 5772 2241 5747 2113 
z
" transform="scale(0.015625)"/>
     </defs>
     <use xlink:href="#DejaVuSans-Oblique-3c4" transform="translate(0 0.78125)"/>
     <use xlink:href="#DejaVuSans-393" transform="translate(60.205078 -15.625) scale(0.7)"/>
     <use xlink:href="#DejaVuSans-2f" transform="translate(101.938477 0.78125)"/>
     <use xlink:href="#DejaVuSans-Oblique-3c4" transform="translate(135.629883 0.78125)"/>
     <use xlink:href="#DejaVuSans-Oblique-44" transform="translate(195.834961 -15.625) scale(0.7)"/>
     <use xlink:href="#DejaVuSans-3d" transform="translate(271.953125 0.78125)"/>
     <use xlink:href="#DejaVuSans-30" transform="translate(375.224609 0.78125)"/>
     <use xlink:href="#DejaVuSans-2c" transform="translate(438.847656 0.78125)"/>
     <use xlink:href="#DejaVuSans-Oblique-3c4" transform="translate(490.117188 0.78125)"/>
     <use xlink:href="#DejaVuSans-Oblique-6d" transform="translate(550.322266 -15.625) scale(0.7)"/>
     <use xlink:href="#DejaVuSans-2f" transform="translate(621.245117 0.78125)"/>
     <use xlink:href="#DejaVuSans-Oblique-3c4" transform="translate(654.936523 0.78125)"/>
     <use xlink:href="#DejaVuSans-Oblique-44" transform="translate(715.141602 -15.625) scale(0.7)"/>
     <use xlink:href="#DejaVuSans-3d" transform="translate(791.259766 0.78125)"/>
     <use xlink:href="#DejaVuSans-30" transform="translate(894.53125 0.78125)"/>
     <use xlink:href="#DejaVuSans-2e" transform="translate(958.154297 0.78125)"/>
     <use xlink:href="#DejaVuSans-30" transform="translate(989.941406 0.78125)"/>
     <use xlink:href="#DejaVuSans-30" transform="translate(1053.564453 0.78125)"/>
     <use xlink:href="#DejaVuSans-31" transform="translate(1117.1875 0.78125)"/>
    </g>
   </g>
   <g id="legend_2">
    <g id="patch_12">
     <path d="M 41.240625 74.374375 
L 269.140625 74.374375 
Q 271.140625 74.374375 271.140625 72.374375 
L 271.140625 29.318125 
Q 271.140625 27.318125 269.140625 27.318125 
L 41.240625 27.318125 
Q 39.240625 27.318125 39.240625 29.318125 
L 39.240625 72.374375 
Q 39.240625 74.374375 41.240625 74.374375 
z
" style="fill: #ffffff; opacity: 0.8; stroke: #cccccc; stroke-linejoin: miter"/>
    </g>
    <g id="PathCollection_4">
     <g>
      <use xlink:href="#m0d786e07b8" x="53.240625" y="36.291563" style="fill: #1f77b4; stroke: #1f77b4; stroke-width: 1.5"/>
     </g>
    </g>
    <g id="text_31">
     <!-- Backward friction -->
     <g transform="translate(71.240625 38.916563) scale(0.1 -0.1)">
      <defs>
       <path id="DejaVuSans-66" d="M 2375 4863 
L 2375 4384 
L 1825 4384 
Q 1516 4384 1395 4259 
Q 1275 4134 1275 3809 
L 1275 3500 
L 2222 3500 
L 2222 3053 
L 1275 3053 
L 1275 0 
L 697 0 
L 697 3053 
L 147 3053 
L 147 3500 
L 697 3500 
L 697 3744 
Q 697 4328 969 4595 
Q 1241 4863 1831 4863 
L 2375 4863 
z
" transform="scale(0.015625)"/>
       <path id="DejaVuSans-69" d="M 603 3500 
L 1178 3500 
L 1178 0 
L 603 0 
L 603 3500 
z
M 603 4863 
L 1178 4863 
L 1178 4134 
L 603 4134 
L 603 4863 
z
" transform="scale(0.015625)"/>
       <path id="DejaVuSans-74" d="M 1172 4494 
L 1172 3500 
L 2356 3500 
L 2356 3053 
L 1172 3053 
L 1172 1153 
Q 1172 725 1289 603 
Q 1406 481 1766 481 
L 2356 481 
L 2356 0 
L 1766 0 
Q 1100 0 847 248 
Q 594 497 594 1153 
L 594 3053 
L 172 3053 
L 172 3500 
L 594 3500 
L 594 4494 
L 1172 4494 
z
" transform="scale(0.015625)"/>
       <path id="DejaVuSans-6f" d="M 1959 3097 
Q 1497 3097 1228 2736 
Q 959 2375 959 1747 
Q 959 1119 1226 758 
Q 1494 397 1959 397 
Q 2419 397 2687 759 
Q 2956 1122 2956 1747 
Q 2956 2369 2687 2733 
Q 2419 3097 1959 3097 
z
M 1959 3584 
Q 2709 3584 3137 3096 
Q 3566 2609 3566 1747 
Q 3566 888 3137 398 
Q 2709 -91 1959 -91 
Q 1206 -91 779 398 
Q 353 888 353 1747 
Q 353 2609 779 3096 
Q 1206 3584 1959 3584 
z
" transform="scale(0.015625)"/>
       <path id="DejaVuSans-6e" d="M 3513 2113 
L 3513 0 
L 2938 0 
L 2938 2094 
Q 2938 2591 2744 2837 
Q 2550 3084 2163 3084 
Q 1697 3084 1428 2787 
Q 1159 2491 1159 1978 
L 1159 0 
L 581 0 
L 581 3500 
L 1159 3500 
L 1159 2956 
Q 1366 3272 1645 3428 
Q 1925 3584 2291 3584 
Q 2894 3584 3203 3211 
Q 3513 2838 3513 2113 
z
" transform="scale(0.015625)"/>
      </defs>
      <use xlink:href="#DejaVuSans-42"/>
      <use xlink:href="#DejaVuSans-61" x="68.603516"/>
      <use xlink:href="#DejaVuSans-63" x="129.882812"/>
      <use xlink:href="#DejaVuSans-6b" x="184.863281"/>
      <use xlink:href="#DejaVuSans-77" x="242.773438"/>
      <use xlink:href="#DejaVuSans-61" x="324.560547"/>
      <use xlink:href="#DejaVuSans-72" x="385.839844"/>
      <use xlink:href="#DejaVuSans-64" x="425.203125"/>
      <use xlink:href="#DejaVuSans-20" x="488.679688"/>
      <use xlink:href="#DejaVuSans-66" x="520.466797"/>
      <use xlink:href="#DejaVuSans-72" x="555.671875"/>
      <use xlink:href="#DejaVuSans-69" x="596.785156"/>
      <use xlink:href="#DejaVuSans-63" x="624.568359"/>
      <use xlink:href="#DejaVuSans-74" x="679.548828"/>
      <use xlink:href="#DejaVuSans-69" x="718.757812"/>
      <use xlink:href="#DejaVuSans-6f" x="746.541016"/>
      <use xlink:href="#DejaVuSans-6e" x="807.722656"/>
     </g>
    </g>
    <g id="line2d_28">
     <path d="M 43.240625 50.094688 
L 53.240625 50.094688 
L 63.240625 50.094688 
" style="fill: none; stroke: #1f77b4; stroke-opacity: 0.3; stroke-linecap: square"/>
    </g>
    <g id="text_32">
     <!-- Potential, $U_0=1k_BT$ -->
     <g transform="translate(71.240625 53.594688) scale(0.1 -0.1)">
      <defs>
       <path id="DejaVuSans-65" d="M 3597 1894 
L 3597 1613 
L 953 1613 
Q 991 1019 1311 708 
Q 1631 397 2203 397 
Q 2534 397 2845 478 
Q 3156 559 3463 722 
L 3463 178 
Q 3153 47 2828 -22 
Q 2503 -91 2169 -91 
Q 1331 -91 842 396 
Q 353 884 353 1716 
Q 353 2575 817 3079 
Q 1281 3584 2069 3584 
Q 2775 3584 3186 3129 
Q 3597 2675 3597 1894 
z
M 3022 2063 
Q 3016 2534 2758 2815 
Q 2500 3097 2075 3097 
Q 1594 3097 1305 2825 
Q 1016 2553 972 2059 
L 3022 2063 
z
" transform="scale(0.015625)"/>
       <path id="DejaVuSans-6c" d="M 603 4863 
L 1178 4863 
L 1178 0 
L 603 0 
L 603 4863 
z
" transform="scale(0.015625)"/>
       <path id="DejaVuSans-Oblique-55" d="M 991 4666 
L 1625 4666 
L 1075 1831 
Q 1041 1641 1027 1517 
Q 1013 1394 1013 1300 
Q 1013 869 1253 645 
Q 1494 422 1959 422 
Q 2563 422 2898 753 
Q 3234 1084 3378 1831 
L 3928 4666 
L 4563 4666 
L 4000 1753 
Q 3816 809 3300 359 
Q 2784 -91 1888 -91 
Q 1188 -91 780 261 
Q 372 613 372 1216 
Q 372 1325 387 1461 
Q 403 1597 434 1753 
L 991 4666 
z
" transform="scale(0.015625)"/>
       <path id="DejaVuSans-Oblique-6b" d="M 1172 4863 
L 1747 4863 
L 1197 2028 
L 3169 3500 
L 3916 3500 
L 1716 1825 
L 3322 0 
L 2625 0 
L 1131 1709 
L 800 0 
L 225 0 
L 1172 4863 
z
" transform="scale(0.015625)"/>
       <path id="DejaVuSans-Oblique-42" d="M 1081 4666 
L 2694 4666 
Q 3350 4666 3675 4422 
Q 4000 4178 4000 3688 
Q 4000 3238 3720 2911 
Q 3441 2584 2988 2516 
Q 3375 2428 3569 2181 
Q 3763 1934 3763 1522 
Q 3763 819 3242 409 
Q 2722 0 1819 0 
L 172 0 
L 1081 4666 
z
M 1234 2228 
L 903 519 
L 1919 519 
Q 2491 519 2800 781 
Q 3109 1044 3109 1522 
Q 3109 1891 2904 2059 
Q 2700 2228 2247 2228 
L 1234 2228 
z
M 1606 4147 
L 1331 2741 
L 2272 2741 
Q 2775 2741 3058 2959 
Q 3341 3178 3341 3566 
Q 3341 3869 3150 4008 
Q 2959 4147 2541 4147 
L 1606 4147 
z
" transform="scale(0.015625)"/>
       <path id="DejaVuSans-Oblique-54" d="M 378 4666 
L 4325 4666 
L 4225 4134 
L 2559 4134 
L 1759 0 
L 1125 0 
L 1925 4134 
L 275 4134 
L 378 4666 
z
" transform="scale(0.015625)"/>
      </defs>
      <use xlink:href="#DejaVuSans-50" transform="translate(0 0.015625)"/>
      <use xlink:href="#DejaVuSans-6f" transform="translate(60.302734 0.015625)"/>
      <use xlink:href="#DejaVuSans-74" transform="translate(121.484375 0.015625)"/>
      <use xlink:href="#DejaVuSans-65" transform="translate(160.693359 0.015625)"/>
      <use xlink:href="#DejaVuSans-6e" transform="translate(222.216797 0.015625)"/>
      <use xlink:href="#DejaVuSans-74" transform="translate(285.595703 0.015625)"/>
      <use xlink:href="#DejaVuSans-69" transform="translate(324.804688 0.015625)"/>
      <use xlink:href="#DejaVuSans-61" transform="translate(352.587891 0.015625)"/>
      <use xlink:href="#DejaVuSans-6c" transform="translate(413.867188 0.015625)"/>
      <use xlink:href="#DejaVuSans-2c" transform="translate(441.650391 0.015625)"/>
      <use xlink:href="#DejaVuSans-20" transform="translate(473.4375 0.015625)"/>
      <use xlink:href="#DejaVuSans-Oblique-55" transform="translate(505.224609 0.015625)"/>
      <use xlink:href="#DejaVuSans-30" transform="translate(578.417969 -16.390625) scale(0.7)"/>
      <use xlink:href="#DejaVuSans-3d" transform="translate(645.170898 0.015625)"/>
      <use xlink:href="#DejaVuSans-31" transform="translate(748.442383 0.015625)"/>
      <use xlink:href="#DejaVuSans-Oblique-6b" transform="translate(812.06543 0.015625)"/>
      <use xlink:href="#DejaVuSans-Oblique-42" transform="translate(869.975586 -16.390625) scale(0.7)"/>
      <use xlink:href="#DejaVuSans-Oblique-54" transform="translate(920.732422 0.015625)"/>
     </g>
    </g>
    <g id="line2d_29">
     <path d="M 43.240625 64.774375 
L 53.240625 64.774375 
L 63.240625 64.774375 
" style="fill: none; stroke-dasharray: 3.7,1.6; stroke-dashoffset: 0; stroke: #0000ff"/>
    </g>
    <g id="text_33">
     <!-- Input friction $\gamma(x)=abs(0.5+sin(x*\pi))$ -->
     <g transform="translate(71.240625 68.274375) scale(0.1 -0.1)">
      <defs>
       <path id="DejaVuSans-49" d="M 628 4666 
L 1259 4666 
L 1259 0 
L 628 0 
L 628 4666 
z
" transform="scale(0.015625)"/>
       <path id="DejaVuSans-70" d="M 1159 525 
L 1159 -1331 
L 581 -1331 
L 581 3500 
L 1159 3500 
L 1159 2969 
Q 1341 3281 1617 3432 
Q 1894 3584 2278 3584 
Q 2916 3584 3314 3078 
Q 3713 2572 3713 1747 
Q 3713 922 3314 415 
Q 2916 -91 2278 -91 
Q 1894 -91 1617 61 
Q 1341 213 1159 525 
z
M 3116 1747 
Q 3116 2381 2855 2742 
Q 2594 3103 2138 3103 
Q 1681 3103 1420 2742 
Q 1159 2381 1159 1747 
Q 1159 1113 1420 752 
Q 1681 391 2138 391 
Q 2594 391 2855 752 
Q 3116 1113 3116 1747 
z
" transform="scale(0.015625)"/>
       <path id="DejaVuSans-75" d="M 544 1381 
L 544 3500 
L 1119 3500 
L 1119 1403 
Q 1119 906 1312 657 
Q 1506 409 1894 409 
Q 2359 409 2629 706 
Q 2900 1003 2900 1516 
L 2900 3500 
L 3475 3500 
L 3475 0 
L 2900 0 
L 2900 538 
Q 2691 219 2414 64 
Q 2138 -91 1772 -91 
Q 1169 -91 856 284 
Q 544 659 544 1381 
z
M 1991 3584 
L 1991 3584 
z
" transform="scale(0.015625)"/>
       <path id="DejaVuSans-28" d="M 1984 4856 
Q 1566 4138 1362 3434 
Q 1159 2731 1159 2009 
Q 1159 1288 1364 580 
Q 1569 -128 1984 -844 
L 1484 -844 
Q 1016 -109 783 600 
Q 550 1309 550 2009 
Q 550 2706 781 3412 
Q 1013 4119 1484 4856 
L 1984 4856 
z
" transform="scale(0.015625)"/>
       <path id="DejaVuSans-Oblique-78" d="M 3841 3500 
L 2234 1784 
L 3219 0 
L 2559 0 
L 1819 1388 
L 531 0 
L -166 0 
L 1556 1844 
L 641 3500 
L 1300 3500 
L 1972 2234 
L 3144 3500 
L 3841 3500 
z
" transform="scale(0.015625)"/>
       <path id="DejaVuSans-29" d="M 513 4856 
L 1013 4856 
Q 1481 4119 1714 3412 
Q 1947 2706 1947 2009 
Q 1947 1309 1714 600 
Q 1481 -109 1013 -844 
L 513 -844 
Q 928 -128 1133 580 
Q 1338 1288 1338 2009 
Q 1338 2731 1133 3434 
Q 928 4138 513 4856 
z
" transform="scale(0.015625)"/>
       <path id="DejaVuSans-Oblique-61" d="M 3438 1997 
L 3047 0 
L 2472 0 
L 2578 531 
Q 2325 219 2001 64 
Q 1678 -91 1281 -91 
Q 834 -91 548 182 
Q 263 456 263 884 
Q 263 1497 752 1853 
Q 1241 2209 2100 2209 
L 2900 2209 
L 2931 2363 
Q 2938 2388 2941 2417 
Q 2944 2447 2944 2509 
Q 2944 2788 2717 2942 
Q 2491 3097 2081 3097 
Q 1800 3097 1504 3025 
Q 1209 2953 897 2809 
L 997 3341 
Q 1322 3463 1633 3523 
Q 1944 3584 2234 3584 
Q 2853 3584 3176 3315 
Q 3500 3047 3500 2534 
Q 3500 2431 3484 2292 
Q 3469 2153 3438 1997 
z
M 2816 1759 
L 2241 1759 
Q 1534 1759 1195 1570 
Q 856 1381 856 984 
Q 856 709 1029 553 
Q 1203 397 1509 397 
Q 1978 397 2328 733 
Q 2678 1069 2791 1631 
L 2816 1759 
z
" transform="scale(0.015625)"/>
       <path id="DejaVuSans-Oblique-62" d="M 3169 2138 
Q 3169 2591 2961 2847 
Q 2753 3103 2388 3103 
Q 2122 3103 1889 2973 
Q 1656 2844 1484 2597 
Q 1303 2338 1198 1995 
Q 1094 1653 1094 1313 
Q 1094 881 1298 636 
Q 1503 391 1863 391 
Q 2134 391 2365 517 
Q 2597 644 2772 891 
Q 2950 1147 3059 1487 
Q 3169 1828 3169 2138 
z
M 1381 2969 
Q 1594 3256 1914 3420 
Q 2234 3584 2584 3584 
Q 3122 3584 3439 3221 
Q 3756 2859 3756 2241 
Q 3756 1734 3570 1259 
Q 3384 784 3041 416 
Q 2816 172 2522 40 
Q 2228 -91 1906 -91 
Q 1566 -91 1316 65 
Q 1066 222 909 531 
L 806 0 
L 231 0 
L 1178 4863 
L 1753 4863 
L 1381 2969 
z
" transform="scale(0.015625)"/>
       <path id="DejaVuSans-Oblique-73" d="M 3200 3397 
L 3091 2853 
Q 2863 2978 2609 3040 
Q 2356 3103 2088 3103 
Q 1634 3103 1373 2948 
Q 1113 2794 1113 2528 
Q 1113 2219 1719 2053 
Q 1766 2041 1788 2034 
L 1972 1978 
Q 2547 1819 2739 1644 
Q 2931 1469 2931 1166 
Q 2931 609 2489 259 
Q 2047 -91 1331 -91 
Q 1053 -91 747 -37 
Q 441 16 72 128 
L 184 722 
Q 500 559 806 475 
Q 1113 391 1394 391 
Q 1816 391 2080 572 
Q 2344 753 2344 1031 
Q 2344 1331 1650 1516 
L 1591 1531 
L 1394 1581 
Q 956 1697 753 1886 
Q 550 2075 550 2369 
Q 550 2928 970 3256 
Q 1391 3584 2113 3584 
Q 2397 3584 2667 3537 
Q 2938 3491 3200 3397 
z
" transform="scale(0.015625)"/>
       <path id="DejaVuSans-2b" d="M 2944 4013 
L 2944 2272 
L 4684 2272 
L 4684 1741 
L 2944 1741 
L 2944 0 
L 2419 0 
L 2419 1741 
L 678 1741 
L 678 2272 
L 2419 2272 
L 2419 4013 
L 2944 4013 
z
" transform="scale(0.015625)"/>
       <path id="DejaVuSans-Oblique-69" d="M 1172 4863 
L 1747 4863 
L 1606 4134 
L 1031 4134 
L 1172 4863 
z
M 909 3500 
L 1484 3500 
L 800 0 
L 225 0 
L 909 3500 
z
" transform="scale(0.015625)"/>
       <path id="DejaVuSans-Oblique-6e" d="M 3566 2113 
L 3156 0 
L 2578 0 
L 2988 2091 
Q 3016 2238 3031 2350 
Q 3047 2463 3047 2528 
Q 3047 2791 2881 2937 
Q 2716 3084 2419 3084 
Q 1956 3084 1622 2776 
Q 1288 2469 1184 1941 
L 800 0 
L 225 0 
L 903 3500 
L 1478 3500 
L 1363 2950 
Q 1603 3253 1940 3418 
Q 2278 3584 2650 3584 
Q 3113 3584 3367 3334 
Q 3622 3084 3622 2631 
Q 3622 2519 3608 2391 
Q 3594 2263 3566 2113 
z
" transform="scale(0.015625)"/>
       <path id="DejaVuSans-2a" d="M 3009 3897 
L 1888 3291 
L 3009 2681 
L 2828 2375 
L 1778 3009 
L 1778 1831 
L 1422 1831 
L 1422 3009 
L 372 2375 
L 191 2681 
L 1313 3291 
L 191 3897 
L 372 4206 
L 1422 3572 
L 1422 4750 
L 1778 4750 
L 1778 3572 
L 2828 4206 
L 3009 3897 
z
" transform="scale(0.015625)"/>
       <path id="DejaVuSans-Oblique-3c0" d="M 584 3500 
L 3938 3500 
L 3825 2925 
L 3384 2925 
L 2966 775 
Q 2922 550 2981 450 
Q 3038 353 3209 353 
Q 3256 353 3325 363 
Q 3397 369 3419 372 
L 3338 -44 
Q 3222 -84 3103 -103 
Q 2981 -122 2866 -122 
Q 2491 -122 2388 81 
Q 2284 288 2391 838 
L 2797 2925 
L 1506 2925 
L 938 0 
L 350 0 
L 919 2925 
L 472 2925 
L 584 3500 
z
" transform="scale(0.015625)"/>
      </defs>
      <use xlink:href="#DejaVuSans-49" transform="translate(0 0.015625)"/>
      <use xlink:href="#DejaVuSans-6e" transform="translate(29.492188 0.015625)"/>
      <use xlink:href="#DejaVuSans-70" transform="translate(92.871094 0.015625)"/>
      <use xlink:href="#DejaVuSans-75" transform="translate(156.347656 0.015625)"/>
      <use xlink:href="#DejaVuSans-74" transform="translate(219.726562 0.015625)"/>
      <use xlink:href="#DejaVuSans-20" transform="translate(258.935547 0.015625)"/>
      <use xlink:href="#DejaVuSans-66" transform="translate(290.722656 0.015625)"/>
      <use xlink:href="#DejaVuSans-72" transform="translate(325.927734 0.015625)"/>
      <use xlink:href="#DejaVuSans-69" transform="translate(367.041016 0.015625)"/>
      <use xlink:href="#DejaVuSans-63" transform="translate(394.824219 0.015625)"/>
      <use xlink:href="#DejaVuSans-74" transform="translate(449.804688 0.015625)"/>
      <use xlink:href="#DejaVuSans-69" transform="translate(489.013672 0.015625)"/>
      <use xlink:href="#DejaVuSans-6f" transform="translate(516.796875 0.015625)"/>
      <use xlink:href="#DejaVuSans-6e" transform="translate(577.978516 0.015625)"/>
      <use xlink:href="#DejaVuSans-20" transform="translate(641.357422 0.015625)"/>
      <use xlink:href="#DejaVuSans-Oblique-3b3" transform="translate(673.144531 0.015625)"/>
      <use xlink:href="#DejaVuSans-28" transform="translate(732.324219 0.015625)"/>
      <use xlink:href="#DejaVuSans-Oblique-78" transform="translate(771.337891 0.015625)"/>
      <use xlink:href="#DejaVuSans-29" transform="translate(830.517578 0.015625)"/>
      <use xlink:href="#DejaVuSans-3d" transform="translate(889.013672 0.015625)"/>
      <use xlink:href="#DejaVuSans-Oblique-61" transform="translate(992.285156 0.015625)"/>
      <use xlink:href="#DejaVuSans-Oblique-62" transform="translate(1053.564453 0.015625)"/>
      <use xlink:href="#DejaVuSans-Oblique-73" transform="translate(1117.041016 0.015625)"/>
      <use xlink:href="#DejaVuSans-28" transform="translate(1169.140625 0.015625)"/>
      <use xlink:href="#DejaVuSans-30" transform="translate(1208.154297 0.015625)"/>
      <use xlink:href="#DejaVuSans-2e" transform="translate(1271.777344 0.015625)"/>
      <use xlink:href="#DejaVuSans-35" transform="translate(1303.564453 0.015625)"/>
      <use xlink:href="#DejaVuSans-2b" transform="translate(1386.669922 0.015625)"/>
      <use xlink:href="#DejaVuSans-Oblique-73" transform="translate(1489.941406 0.015625)"/>
      <use xlink:href="#DejaVuSans-Oblique-69" transform="translate(1542.041016 0.015625)"/>
      <use xlink:href="#DejaVuSans-Oblique-6e" transform="translate(1569.824219 0.015625)"/>
      <use xlink:href="#DejaVuSans-28" transform="translate(1633.203125 0.015625)"/>
      <use xlink:href="#DejaVuSans-Oblique-78" transform="translate(1672.216797 0.015625)"/>
      <use xlink:href="#DejaVuSans-2a" transform="translate(1750.878906 0.015625)"/>
      <use xlink:href="#DejaVuSans-Oblique-3c0" transform="translate(1820.361328 0.015625)"/>
      <use xlink:href="#DejaVuSans-29" transform="translate(1880.566406 0.015625)"/>
      <use xlink:href="#DejaVuSans-29" transform="translate(1919.580078 0.015625)"/>
     </g>
    </g>
   </g>
  </g>
 </g>
 <defs>
  <clipPath id="p31307b3f7a">
   <rect x="34.240625" y="22.318125" width="363.6606" height="292.84"/>
  </clipPath>
 </defs>
</svg>
