<?xml version="1.0" encoding="utf-8" standalone="no"?>
<!DOCTYPE svg PUBLIC "-//W3C//DTD SVG 1.1//EN"
  "http://www.w3.org/Graphics/SVG/1.1/DTD/svg11.dtd">
<svg xmlns:xlink="http://www.w3.org/1999/xlink" width="355.484134pt" height="211.623918pt" viewBox="0 0 355.484134 211.623918" xmlns="http://www.w3.org/2000/svg" version="1.1">
 <metadata>
  <rdf:RDF xmlns:dc="http://purl.org/dc/elements/1.1/" xmlns:cc="http://creativecommons.org/ns#" xmlns:rdf="http://www.w3.org/1999/02/22-rdf-syntax-ns#">
   <cc:Work>
    <dc:type rdf:resource="http://purl.org/dc/dcmitype/StillImage"/>
    <dc:date>2023-06-11T16:59:57.101158</dc:date>
    <dc:format>image/svg+xml</dc:format>
    <dc:creator>
     <cc:Agent>
      <dc:title>Matplotlib v3.5.1, https://matplotlib.org/</dc:title>
     </cc:Agent>
    </dc:creator>
   </cc:Work>
  </rdf:RDF>
 </metadata>
 <defs>
  <style type="text/css">*{stroke-linejoin: round; stroke-linecap: butt}</style>
 </defs>
 <g id="figure_1">
  <g id="patch_1">
   <path d="M 0 211.623918 
L 355.484134 211.623918 
L 355.484134 0 
L 0 0 
z
" style="fill: #ffffff"/>
  </g>
  <g id="axes_1">
   <g id="patch_2">
    <path d="M 87.721207 163.08095 
L 306.540736 163.08095 
L 306.540736 29.339474 
L 87.721207 29.339474 
z
" style="fill: #ffffff"/>
   </g>
   <g id="PathCollection_1">
    <defs>
     <path id="m2a19a48a95" d="M 3 0 
L -3 -3 
L -3 3 
z
" style="stroke: #d62728"/>
    </defs>
    <g clip-path="url(#p74777fa156)">
     <use xlink:href="#m2a19a48a95" x="101.72728" y="157.001792" style="fill: #d62728; stroke: #d62728"/>
     <use xlink:href="#m2a19a48a95" x="105.787012" y="156.439063" style="fill: #d62728; stroke: #d62728"/>
     <use xlink:href="#m2a19a48a95" x="109.846743" y="155.768847" style="fill: #d62728; stroke: #d62728"/>
     <use xlink:href="#m2a19a48a95" x="113.906475" y="154.969804" style="fill: #d62728; stroke: #d62728"/>
     <use xlink:href="#m2a19a48a95" x="117.966206" y="154.019472" style="fill: #d62728; stroke: #d62728"/>
     <use xlink:href="#m2a19a48a95" x="122.025938" y="152.887197" style="fill: #d62728; stroke: #d62728"/>
     <use xlink:href="#m2a19a48a95" x="126.08567" y="151.513357" style="fill: #d62728; stroke: #d62728"/>
     <use xlink:href="#m2a19a48a95" x="130.145401" y="149.923374" style="fill: #d62728; stroke: #d62728"/>
     <use xlink:href="#m2a19a48a95" x="134.205133" y="148.021933" style="fill: #d62728; stroke: #d62728"/>
     <use xlink:href="#m2a19a48a95" x="138.264864" y="145.826455" style="fill: #d62728; stroke: #d62728"/>
     <use xlink:href="#m2a19a48a95" x="142.324596" y="143.268455" style="fill: #d62728; stroke: #d62728"/>
     <use xlink:href="#m2a19a48a95" x="146.384327" y="140.423187" style="fill: #d62728; stroke: #d62728"/>
     <use xlink:href="#m2a19a48a95" x="150.444059" y="137.153723" style="fill: #d62728; stroke: #d62728"/>
     <use xlink:href="#m2a19a48a95" x="154.50379" y="133.558675" style="fill: #d62728; stroke: #d62728"/>
     <use xlink:href="#m2a19a48a95" x="158.563522" y="129.745448" style="fill: #d62728; stroke: #d62728"/>
     <use xlink:href="#m2a19a48a95" x="162.623253" y="125.976766" style="fill: #d62728; stroke: #d62728"/>
     <use xlink:href="#m2a19a48a95" x="166.682985" y="121.880448" style="fill: #d62728; stroke: #d62728"/>
     <use xlink:href="#m2a19a48a95" x="170.742716" y="117.939302" style="fill: #d62728; stroke: #d62728"/>
     <use xlink:href="#m2a19a48a95" x="174.802448" y="113.707593" style="fill: #d62728; stroke: #d62728"/>
     <use xlink:href="#m2a19a48a95" x="178.862179" y="109.443209" style="fill: #d62728; stroke: #d62728"/>
     <use xlink:href="#m2a19a48a95" x="182.921911" y="105.60346" style="fill: #d62728; stroke: #d62728"/>
     <use xlink:href="#m2a19a48a95" x="186.981642" y="101.948043" style="fill: #d62728; stroke: #d62728"/>
     <use xlink:href="#m2a19a48a95" x="191.041374" y="98.33761" style="fill: #d62728; stroke: #d62728"/>
     <use xlink:href="#m2a19a48a95" x="195.101106" y="94.788718" style="fill: #d62728; stroke: #d62728"/>
     <use xlink:href="#m2a19a48a95" x="199.160837" y="91.268253" style="fill: #d62728; stroke: #d62728"/>
     <use xlink:href="#m2a19a48a95" x="203.220569" y="88.199092" style="fill: #d62728; stroke: #d62728"/>
     <use xlink:href="#m2a19a48a95" x="207.2803" y="85.192644" style="fill: #d62728; stroke: #d62728"/>
     <use xlink:href="#m2a19a48a95" x="211.340032" y="82.28818" style="fill: #d62728; stroke: #d62728"/>
     <use xlink:href="#m2a19a48a95" x="215.399763" y="79.140187" style="fill: #d62728; stroke: #d62728"/>
     <use xlink:href="#m2a19a48a95" x="219.459495" y="75.517152" style="fill: #d62728; stroke: #d62728"/>
     <use xlink:href="#m2a19a48a95" x="223.519226" y="72.50836" style="fill: #d62728; stroke: #d62728"/>
     <use xlink:href="#m2a19a48a95" x="227.578958" y="69.3885" style="fill: #d62728; stroke: #d62728"/>
     <use xlink:href="#m2a19a48a95" x="231.638689" y="66.225708" style="fill: #d62728; stroke: #d62728"/>
     <use xlink:href="#m2a19a48a95" x="235.698421" y="63.580157" style="fill: #d62728; stroke: #d62728"/>
     <use xlink:href="#m2a19a48a95" x="239.758152" y="60.066432" style="fill: #d62728; stroke: #d62728"/>
     <use xlink:href="#m2a19a48a95" x="243.817884" y="57.89182" style="fill: #d62728; stroke: #d62728"/>
     <use xlink:href="#m2a19a48a95" x="247.877615" y="55.38591" style="fill: #d62728; stroke: #d62728"/>
     <use xlink:href="#m2a19a48a95" x="251.937347" y="52.96689" style="fill: #d62728; stroke: #d62728"/>
     <use xlink:href="#m2a19a48a95" x="255.997078" y="51.111122" style="fill: #d62728; stroke: #d62728"/>
     <use xlink:href="#m2a19a48a95" x="260.05681" y="49.055197" style="fill: #d62728; stroke: #d62728"/>
     <use xlink:href="#m2a19a48a95" x="264.116542" y="46.992825" style="fill: #d62728; stroke: #d62728"/>
     <use xlink:href="#m2a19a48a95" x="268.176273" y="45.604772" style="fill: #d62728; stroke: #d62728"/>
     <use xlink:href="#m2a19a48a95" x="272.236005" y="43.997367" style="fill: #d62728; stroke: #d62728"/>
     <use xlink:href="#m2a19a48a95" x="276.295736" y="42.192883" style="fill: #d62728; stroke: #d62728"/>
     <use xlink:href="#m2a19a48a95" x="280.355468" y="40.852158" style="fill: #d62728; stroke: #d62728"/>
     <use xlink:href="#m2a19a48a95" x="284.415199" y="39.259113" style="fill: #d62728; stroke: #d62728"/>
     <use xlink:href="#m2a19a48a95" x="288.474931" y="38.027697" style="fill: #d62728; stroke: #d62728"/>
     <use xlink:href="#m2a19a48a95" x="292.534662" y="36.78412" style="fill: #d62728; stroke: #d62728"/>
     <use xlink:href="#m2a19a48a95" x="296.594394" y="35.418632" style="fill: #d62728; stroke: #d62728"/>
    </g>
   </g>
   <g id="matplotlib.axis_1">
    <g id="xtick_1">
     <g id="line2d_1">
      <defs>
       <path id="m2ce31a4607" d="M 0 0 
L 0 -3.5 
" style="stroke: #000000; stroke-width: 0.8"/>
      </defs>
      <g>
       <use xlink:href="#m2ce31a4607" x="93.607817" y="163.08095" style="stroke: #000000; stroke-width: 0.8"/>
      </g>
     </g>
     <g id="text_1">
      <!-- $\mathdefault{−1}$ -->
      <g transform="translate(82.521803 179.03425)scale(0.18 -0.18)">
       <defs>
        <path id="CMSY10-0" d="M 4218 1472 
C 4326 1472 4442 1472 4442 1600 
C 4442 1728 4326 1728 4218 1728 
L 755 1728 
C 646 1728 531 1728 531 1600 
C 531 1472 646 1472 755 1472 
L 4218 1472 
z
" transform="scale(0.015625)"/>
        <path id="CMR17-31" d="M 1702 4083 
C 1702 4217 1696 4224 1606 4224 
C 1357 3927 979 3833 621 3820 
C 602 3820 570 3820 563 3808 
C 557 3795 557 3782 557 3648 
C 755 3648 1088 3686 1344 3839 
L 1344 467 
C 1344 243 1331 166 781 166 
L 589 166 
L 589 0 
C 896 6 1216 12 1523 12 
C 1830 12 2150 6 2458 0 
L 2458 166 
L 2266 166 
C 1715 166 1702 236 1702 467 
L 1702 4083 
z
" transform="scale(0.015625)"/>
       </defs>
       <use xlink:href="#CMSY10-0" transform="scale(0.996264)"/>
       <use xlink:href="#CMR17-31" transform="translate(77.487468 0)scale(0.996264)"/>
      </g>
     </g>
    </g>
    <g id="xtick_2">
     <g id="line2d_2">
      <g>
       <use xlink:href="#m2ce31a4607" x="195.101106" y="163.08095" style="stroke: #000000; stroke-width: 0.8"/>
      </g>
     </g>
     <g id="text_2">
      <!-- $\mathdefault{0}$ -->
      <g transform="translate(190.988963 179.03425)scale(0.18 -0.18)">
       <defs>
        <path id="CMR17-30" d="M 2688 2038 
C 2688 2430 2682 3099 2413 3613 
C 2176 4063 1798 4224 1466 4224 
C 1158 4224 768 4082 525 3620 
C 269 3137 243 2539 243 2038 
C 243 1671 250 1112 448 623 
C 723 -39 1216 -128 1466 -128 
C 1760 -128 2208 -7 2470 604 
C 2662 1048 2688 1568 2688 2038 
z
M 1466 -26 
C 1056 -26 813 328 723 816 
C 653 1196 653 1749 653 2109 
C 653 2604 653 3015 736 3407 
C 858 3954 1216 4121 1466 4121 
C 1728 4121 2067 3947 2189 3420 
C 2272 3054 2278 2623 2278 2109 
C 2278 1691 2278 1176 2202 797 
C 2067 96 1690 -26 1466 -26 
z
" transform="scale(0.015625)"/>
       </defs>
       <use xlink:href="#CMR17-30" transform="scale(0.996264)"/>
      </g>
     </g>
    </g>
    <g id="xtick_3">
     <g id="line2d_3">
      <g>
       <use xlink:href="#m2ce31a4607" x="296.594394" y="163.08095" style="stroke: #000000; stroke-width: 0.8"/>
      </g>
     </g>
     <g id="text_3">
      <!-- $\mathdefault{1}$ -->
      <g transform="translate(292.482251 179.03425)scale(0.18 -0.18)">
       <use xlink:href="#CMR17-31" transform="scale(0.996264)"/>
      </g>
     </g>
    </g>
    <g id="text_4">
     <!-- x/L -->
     <g transform="translate(183.508145 199.955734)scale(0.18 -0.18)">
      <defs>
       <path id="CMR17-78" d="M 1664 1491 
C 1856 1740 2074 2022 2253 2233 
C 2464 2476 2707 2579 2989 2585 
L 2989 2752 
C 2880 2745 2656 2739 2541 2739 
C 2368 2739 2170 2739 2022 2752 
L 2022 2585 
C 2112 2572 2163 2508 2163 2419 
C 2163 2304 2099 2233 2067 2188 
L 1594 1587 
L 1030 2323 
C 973 2393 973 2406 973 2438 
C 973 2515 1037 2579 1146 2585 
L 1146 2752 
C 992 2739 717 2739 557 2739 
C 384 2739 179 2739 38 2752 
L 38 2585 
C 384 2585 461 2560 614 2368 
L 1350 1414 
C 1363 1401 1395 1363 1395 1344 
C 1395 1318 838 633 768 544 
C 480 198 179 172 6 166 
L 6 0 
C 115 6 339 12 454 12 
C 582 12 864 12 979 0 
L 979 166 
C 941 172 838 185 838 332 
C 838 448 890 518 947 595 
L 1478 1248 
L 2035 524 
C 2086 454 2163 358 2163 313 
C 2163 224 2086 172 1984 166 
L 1984 0 
C 2138 12 2413 12 2573 12 
C 2746 12 2950 12 3091 0 
L 3091 166 
C 2771 166 2675 179 2522 377 
L 1664 1491 
z
" transform="scale(0.015625)"/>
       <path id="CMR17-2f" d="M 2605 4575 
C 2637 4658 2637 4671 2637 4684 
C 2637 4761 2579 4800 2528 4800 
C 2451 4800 2426 4748 2400 4671 
L 326 -1376 
C 294 -1460 294 -1472 294 -1485 
C 294 -1562 352 -1600 403 -1600 
C 480 -1600 506 -1549 531 -1472 
L 2605 4575 
z
" transform="scale(0.015625)"/>
       <path id="CMR17-4c" d="M 3469 1612 
L 3354 1612 
C 3302 981 3219 166 2125 166 
L 1530 166 
C 1274 166 1261 198 1261 414 
L 1261 3892 
C 1261 4121 1274 4185 1760 4185 
L 1901 4185 
L 1901 4352 
C 1638 4339 1331 4339 1069 4339 
C 870 4339 512 4339 326 4352 
L 326 4185 
C 768 4185 838 4185 838 3898 
L 838 453 
C 838 166 768 166 326 166 
L 326 0 
L 3315 0 
L 3469 1612 
z
" transform="scale(0.015625)"/>
      </defs>
      <use xlink:href="#CMR17-78" transform="scale(0.996264)"/>
      <use xlink:href="#CMR17-2f" transform="translate(48.292916 0)scale(0.996264)"/>
      <use xlink:href="#CMR17-4c" transform="translate(93.983393 0)scale(0.996264)"/>
     </g>
    </g>
   </g>
   <g id="matplotlib.axis_2">
    <g id="ytick_1">
     <g id="line2d_4">
      <defs>
       <path id="mf5bedb7aac" d="M 0 0 
L 3.5 0 
" style="stroke: #000000; stroke-width: 0.8"/>
      </defs>
      <g>
       <use xlink:href="#mf5bedb7aac" x="87.721207" y="158.141564" style="stroke: #000000; stroke-width: 0.8"/>
      </g>
     </g>
     <g id="text_5">
      <!-- $\mathdefault{0}$ -->
      <g style="fill: #d62728" transform="translate(75.996921 164.368214)scale(0.18 -0.18)">
       <use xlink:href="#CMR17-30" transform="scale(0.996264)"/>
      </g>
     </g>
    </g>
    <g id="ytick_2">
     <g id="line2d_5">
      <g>
       <use xlink:href="#mf5bedb7aac" x="87.721207" y="84.877903" style="stroke: #000000; stroke-width: 0.8"/>
      </g>
     </g>
     <g id="text_6">
      <!-- $\mathdefault{5}$ -->
      <g style="fill: #d62728" transform="translate(75.996921 91.104553)scale(0.18 -0.18)">
       <defs>
        <path id="CMR17-35" d="M 730 3750 
C 794 3724 1056 3641 1325 3641 
C 1920 3641 2246 3961 2432 4140 
C 2432 4191 2432 4224 2394 4224 
C 2387 4224 2374 4224 2323 4198 
C 2099 4102 1837 4032 1517 4032 
C 1325 4032 1037 4055 723 4191 
C 653 4224 640 4224 634 4224 
C 602 4224 595 4217 595 4090 
L 595 2231 
C 595 2113 595 2080 659 2080 
C 691 2080 704 2093 736 2139 
C 941 2435 1222 2560 1542 2560 
C 1766 2560 2246 2415 2246 1293 
C 2246 1087 2246 716 2054 422 
C 1894 159 1645 25 1370 25 
C 947 25 518 319 403 812 
C 429 806 480 793 506 793 
C 589 793 749 838 749 1036 
C 749 1209 627 1280 506 1280 
C 358 1280 262 1190 262 1011 
C 262 454 704 -128 1382 -128 
C 2042 -128 2669 441 2669 1267 
C 2669 2054 2170 2662 1549 2662 
C 1222 2662 947 2540 730 2304 
L 730 3750 
z
" transform="scale(0.015625)"/>
       </defs>
       <use xlink:href="#CMR17-35" transform="scale(0.996264)"/>
      </g>
     </g>
    </g>
    <g id="text_7">
     <!-- $\tau_{MFFP}/\tau_D$ -->
     <g style="fill: #d62728" transform="translate(67.513733 134.656766)rotate(-90)scale(0.18 -0.18)">
      <defs>
       <path id="CMMI12-1c" d="M 1837 2406 
L 2899 2406 
C 2982 2406 3194 2406 3194 2611 
C 3194 2752 3072 2752 2957 2752 
L 1197 2752 
C 1050 2752 832 2752 538 2438 
C 371 2253 166 1916 166 1878 
C 166 1839 198 1827 237 1827 
C 282 1827 288 1846 320 1884 
C 653 2406 986 2406 1146 2406 
L 1677 2406 
L 1011 223 
C 979 127 979 114 979 95 
C 979 25 1024 -64 1152 -64 
C 1350 -64 1382 108 1402 204 
L 1837 2406 
z
" transform="scale(0.015625)"/>
       <path id="CMMI12-4d" d="M 5811 3886 
C 5869 4102 5882 4166 6336 4166 
C 6458 4166 6515 4166 6515 4287 
C 6515 4352 6470 4352 6349 4352 
L 5581 4352 
C 5421 4352 5414 4345 5344 4243 
L 3008 567 
L 2528 4211 
C 2509 4352 2502 4352 2336 4352 
L 1542 4352 
C 1421 4352 1363 4352 1363 4230 
C 1363 4166 1421 4166 1517 4166 
C 1907 4166 1907 4115 1907 4045 
C 1907 4032 1907 3994 1882 3898 
L 1062 650 
C 986 344 838 204 410 185 
C 390 185 314 179 314 70 
C 314 0 371 0 397 0 
C 525 0 851 12 979 12 
L 1286 12 
C 1376 12 1485 0 1574 0 
C 1619 0 1690 0 1690 121 
C 1690 179 1626 185 1600 185 
C 1389 191 1184 230 1184 459 
C 1184 523 1184 529 1210 618 
L 2093 4128 
L 2099 4128 
L 2630 172 
C 2650 19 2656 0 2714 0 
C 2784 0 2816 51 2848 108 
L 5421 4159 
L 5427 4159 
L 4499 472 
C 4442 249 4429 185 3981 185 
C 3859 185 3795 185 3795 70 
C 3795 0 3853 0 3891 0 
C 4000 0 4128 12 4237 12 
L 4992 12 
C 5101 12 5235 0 5344 0 
C 5395 0 5466 0 5466 121 
C 5466 185 5408 185 5312 185 
C 4922 185 4922 236 4922 300 
C 4922 306 4922 351 4934 402 
L 5811 3886 
z
" transform="scale(0.015625)"/>
       <path id="CMMI12-46" d="M 1901 2054 
L 2515 2054 
C 3002 2054 3040 1947 3040 1764 
C 3040 1683 3027 1595 2995 1456 
C 2982 1431 2976 1399 2976 1387 
C 2976 1343 3002 1318 3046 1318 
C 3098 1318 3104 1343 3130 1444 
L 3501 2929 
C 3501 2955 3482 2993 3437 2993 
C 3379 2993 3373 2968 3347 2858 
C 3213 2375 3085 2240 2528 2240 
L 1946 2240 
L 2362 3908 
C 2419 4134 2432 4153 2694 4153 
L 3552 4153 
C 4352 4153 4467 3915 4467 3457 
C 4467 3419 4467 3277 4448 3109 
C 4442 3084 4429 3000 4429 2974 
C 4429 2922 4461 2903 4499 2903 
C 4544 2903 4570 2929 4582 3045 
L 4717 4172 
C 4717 4191 4730 4255 4730 4268 
C 4730 4339 4672 4339 4557 4339 
L 1523 4339 
C 1402 4339 1338 4339 1338 4223 
C 1338 4153 1382 4153 1491 4153 
C 1888 4153 1888 4108 1888 4037 
C 1888 4005 1882 3979 1862 3908 
L 998 468 
C 941 248 928 185 480 185 
C 358 185 294 185 294 70 
C 294 0 352 0 390 0 
C 512 0 640 12 762 12 
L 1594 12 
C 1734 12 1888 0 2029 0 
C 2086 0 2163 0 2163 115 
C 2163 185 2125 185 1984 185 
C 1478 185 1466 229 1466 324 
C 1466 355 1478 405 1491 449 
L 1901 2054 
z
" transform="scale(0.015625)"/>
       <path id="CMMI12-50" d="M 1894 2022 
L 2970 2022 
C 3853 2022 4736 2673 4736 3400 
C 4736 3898 4314 4352 3507 4352 
L 1530 4352 
C 1408 4352 1350 4352 1350 4230 
C 1350 4166 1408 4166 1504 4166 
C 1894 4166 1894 4115 1894 4045 
C 1894 4032 1894 3994 1869 3898 
L 1005 471 
C 947 249 934 185 486 185 
C 365 185 301 185 301 70 
C 301 0 358 0 397 0 
C 518 0 646 12 768 12 
L 1517 12 
C 1638 12 1773 0 1894 0 
C 1946 0 2016 0 2016 121 
C 2016 185 1958 185 1862 185 
C 1478 185 1472 230 1472 293 
C 1472 325 1478 369 1485 401 
L 1894 2022 
z
M 2355 3917 
C 2413 4153 2438 4166 2688 4166 
L 3322 4166 
C 3802 4166 4198 4013 4198 3534 
C 4198 3369 4115 2826 3821 2533 
C 3712 2418 3405 2176 2822 2176 
L 1920 2176 
L 2355 3917 
z
" transform="scale(0.015625)"/>
       <path id="CMMI12-3d" d="M 2746 4563 
C 2746 4569 2784 4665 2784 4678 
C 2784 4755 2720 4800 2669 4800 
C 2637 4800 2579 4800 2528 4659 
L 384 -1364 
C 384 -1370 346 -1466 346 -1479 
C 346 -1556 410 -1600 461 -1600 
C 499 -1600 557 -1594 602 -1460 
L 2746 4563 
z
" transform="scale(0.015625)"/>
       <path id="CMMI12-44" d="M 1005 472 
C 947 249 934 185 486 185 
C 365 185 301 185 301 70 
C 301 0 339 0 467 0 
L 2496 0 
C 3789 0 5050 1332 5050 2752 
C 5050 3669 4499 4352 3584 4352 
L 1530 4352 
C 1408 4352 1350 4352 1350 4230 
C 1350 4166 1408 4166 1504 4166 
C 1894 4166 1894 4115 1894 4045 
C 1894 4032 1894 3994 1869 3898 
L 1005 472 
z
M 2355 3917 
C 2413 4153 2438 4166 2688 4166 
L 3392 4166 
C 3994 4166 4544 3841 4544 2962 
C 4544 2644 4416 1535 3795 835 
C 3616 625 3130 185 2394 185 
L 1664 185 
C 1574 185 1562 185 1523 191 
C 1453 198 1446 211 1446 262 
C 1446 306 1459 344 1472 402 
L 2355 3917 
z
" transform="scale(0.015625)"/>
      </defs>
      <use xlink:href="#CMMI12-1c" transform="scale(0.996264)"/>
      <use xlink:href="#CMMI12-4d" transform="translate(42.363841 -14.943915)scale(0.697382)"/>
      <use xlink:href="#CMMI12-46" transform="translate(115.709583 -14.943915)scale(0.697382)"/>
      <use xlink:href="#CMMI12-46" transform="translate(169.397094 -14.943915)scale(0.697382)"/>
      <use xlink:href="#CMMI12-50" transform="translate(223.084606 -14.943915)scale(0.697382)"/>
      <use xlink:href="#CMMI12-3d" transform="translate(277.080562 0)scale(0.996264)"/>
      <use xlink:href="#CMMI12-1c" transform="translate(325.85548 0)scale(0.996264)"/>
      <use xlink:href="#CMMI12-44" transform="translate(368.219321 -14.943915)scale(0.697382)"/>
     </g>
    </g>
   </g>
   <g id="patch_3">
    <path d="M 87.721207 163.08095 
L 87.721207 29.339474 
" style="fill: none; stroke: #000000; stroke-width: 1.5; stroke-linejoin: miter; stroke-linecap: square"/>
   </g>
   <g id="patch_4">
    <path d="M 306.540736 163.08095 
L 306.540736 29.339474 
" style="fill: none; stroke: #000000; stroke-width: 1.5; stroke-linejoin: miter; stroke-linecap: square"/>
   </g>
   <g id="patch_5">
    <path d="M 87.721207 163.08095 
L 306.540736 163.08095 
" style="fill: none; stroke: #000000; stroke-width: 1.5; stroke-linejoin: miter; stroke-linecap: square"/>
   </g>
   <g id="patch_6">
    <path d="M 87.721207 29.339474 
L 306.540736 29.339474 
" style="fill: none; stroke: #000000; stroke-width: 1.5; stroke-linejoin: miter; stroke-linecap: square"/>
   </g>
   <g id="legend_1">
    <g id="patch_7">
     <path d="M 79.887849 110.580324 
L 295.340736 110.580324 
Q 298.540736 110.580324 298.540736 107.380324 
L 298.540736 85.0401 
Q 298.540736 81.8401 295.340736 81.8401 
L 79.887849 81.8401 
Q 76.687849 81.8401 76.687849 85.0401 
L 76.687849 107.380324 
Q 76.687849 110.580324 79.887849 110.580324 
z
" style="fill: #ffffff; opacity: 0.8; stroke: #cccccc; stroke-linejoin: miter"/>
    </g>
    <g id="PathCollection_2">
     <g>
      <use xlink:href="#m2a19a48a95" x="99.087849" y="95.995268" style="fill: #d62728; stroke: #d62728"/>
     </g>
    </g>
    <g id="text_8">
     <!-- Forward $\tau_{MFFP}(-1, x_F)$ -->
     <g transform="translate(127.887849 100.195268)scale(0.16 -0.16)">
      <defs>
       <path id="CMR17-46" d="M 3482 4339 
L 326 4339 
L 326 4172 
C 768 4172 838 4172 838 3883 
L 838 450 
C 838 166 768 166 326 166 
L 326 0 
C 512 12 870 12 1069 12 
C 1331 12 1638 12 1901 0 
L 1901 166 
L 1760 166 
C 1274 166 1261 229 1261 456 
L 1261 2073 
L 1837 2073 
C 2432 2073 2490 1865 2490 1334 
L 2605 1334 
L 2605 2991 
L 2490 2991 
C 2490 2451 2432 2240 1837 2240 
L 1261 2240 
L 1261 3922 
C 1261 4140 1274 4172 1530 4172 
L 2355 4172 
C 3322 4172 3430 3774 3520 2920 
L 3635 2920 
L 3482 4339 
z
" transform="scale(0.015625)"/>
       <path id="CMR17-6f" d="M 2758 1356 
C 2758 2176 2163 2816 1466 2816 
C 768 2816 173 2176 173 1356 
C 173 550 768 -64 1466 -64 
C 2163 -64 2758 550 2758 1356 
z
M 1466 51 
C 1165 51 909 230 762 480 
C 602 768 582 1126 582 1408 
C 582 1676 595 2009 762 2297 
C 890 2508 1139 2713 1466 2713 
C 1754 2713 1997 2553 2150 2329 
C 2349 2028 2349 1606 2349 1408 
C 2349 1158 2336 774 2163 467 
C 1984 172 1709 51 1466 51 
z
" transform="scale(0.015625)"/>
       <path id="CMR17-72" d="M 960 1517 
C 960 2134 1222 2713 1702 2713 
C 1747 2713 1792 2707 1837 2687 
C 1837 2687 1696 2642 1696 2475 
C 1696 2321 1818 2257 1914 2257 
C 1990 2257 2131 2302 2131 2482 
C 2131 2687 1926 2816 1709 2816 
C 1222 2816 1011 2340 947 2115 
L 941 2115 
L 941 2816 
L 198 2745 
L 198 2578 
C 576 2578 634 2540 634 2231 
L 634 443 
C 634 198 608 166 198 166 
L 198 0 
C 352 12 646 12 813 12 
C 998 12 1325 12 1498 0 
L 1498 166 
C 1037 166 960 166 960 455 
L 960 1517 
z
" transform="scale(0.015625)"/>
       <path id="CMR17-77" d="M 3725 2186 
C 3853 2566 4109 2579 4205 2585 
L 4205 2752 
C 4077 2745 3949 2739 3821 2739 
C 3699 2739 3424 2739 3315 2752 
L 3315 2585 
C 3514 2572 3622 2456 3622 2296 
C 3622 2251 3610 2193 3597 2148 
L 2995 398 
L 2342 2296 
C 2330 2341 2310 2392 2310 2418 
C 2310 2585 2528 2585 2630 2585 
L 2630 2752 
C 2483 2739 2214 2739 2061 2739 
C 1901 2739 1734 2739 1587 2752 
L 1587 2585 
C 1939 2585 1939 2572 2074 2167 
L 1485 443 
L 851 2302 
C 819 2386 819 2399 819 2418 
C 819 2585 1037 2585 1139 2585 
L 1139 2752 
C 986 2739 717 2739 557 2739 
C 416 2739 198 2739 64 2752 
L 64 2585 
C 346 2585 416 2566 486 2353 
L 1274 38 
C 1299 -45 1318 -64 1370 -64 
C 1414 -64 1440 -52 1472 44 
L 2131 1987 
L 2797 44 
C 2829 -52 2854 -64 2899 -64 
C 2950 -64 2970 -45 2995 38 
L 3725 2186 
z
" transform="scale(0.015625)"/>
       <path id="CMR17-61" d="M 2304 1656 
C 2304 2048 2304 2275 2035 2534 
C 1798 2751 1523 2816 1306 2816 
C 800 2816 435 2408 435 1977 
C 435 1740 627 1728 666 1728 
C 749 1728 896 1779 896 1958 
C 896 2118 774 2188 666 2188 
C 640 2188 608 2182 589 2176 
C 723 2594 1069 2713 1293 2713 
C 1613 2713 1965 2421 1965 1875 
L 1965 1632 
C 1587 1619 1133 1568 774 1373 
C 371 1147 256 822 256 576 
C 256 77 832 -64 1171 -64 
C 1523 -64 1850 135 1990 505 
C 2003 219 2182 -39 2464 -39 
C 2598 -39 2938 51 2938 563 
L 2938 926 
L 2822 926 
L 2822 557 
C 2822 161 2650 109 2566 109 
C 2304 109 2304 446 2304 732 
L 2304 1656 
z
M 1965 887 
C 1965 323 1568 38 1216 38 
C 896 38 646 278 646 576 
C 646 771 730 1114 1101 1322 
C 1408 1497 1760 1523 1965 1536 
L 1965 887 
z
" transform="scale(0.015625)"/>
       <path id="CMR17-64" d="M 1869 4345 
L 1869 4179 
C 2246 4179 2304 4141 2304 3843 
L 2304 2371 
C 2278 2403 2016 2816 1498 2816 
C 845 2816 211 2228 211 1376 
C 211 529 806 -64 1434 -64 
C 1978 -64 2259 361 2291 406 
L 2291 -64 
L 3066 -13 
L 3066 154 
C 2688 154 2630 193 2630 503 
L 2630 4416 
L 1869 4345 
z
M 2291 762 
C 2291 568 2176 393 2029 264 
C 1811 70 1594 38 1472 38 
C 1286 38 621 135 621 1369 
C 621 2636 1363 2713 1530 2713 
C 1824 2713 2061 2545 2208 2313 
C 2291 2177 2291 2157 2291 2041 
L 2291 762 
z
" transform="scale(0.015625)"/>
       <path id="CMR17-28" d="M 1958 -1562 
C 1958 -1556 1958 -1543 1939 -1524 
C 1645 -1223 858 -403 858 1596 
C 858 3595 1632 4408 1946 4729 
C 1946 4735 1958 4748 1958 4767 
C 1958 4787 1939 4800 1914 4800 
C 1843 4800 1299 4325 986 3620 
C 666 2909 576 2218 576 1603 
C 576 1141 621 360 1005 -467 
C 1312 -1133 1837 -1600 1914 -1600 
C 1946 -1600 1958 -1588 1958 -1562 
z
" transform="scale(0.015625)"/>
       <path id="CMMI12-3b" d="M 1248 -26 
C 1248 345 1126 620 864 620 
C 659 620 557 454 557 313 
C 557 172 653 0 870 0 
C 954 0 1024 25 1082 83 
C 1094 96 1101 96 1107 96 
C 1120 96 1120 6 1120 -26 
C 1120 -233 1082 -642 710 -1051 
C 640 -1127 640 -1140 640 -1152 
C 640 -1184 672 -1216 704 -1216 
C 755 -1216 1248 -749 1248 -26 
z
" transform="scale(0.015625)"/>
       <path id="CMMI12-78" d="M 3034 2624 
C 2829 2585 2752 2431 2752 2310 
C 2752 2156 2874 2105 2963 2105 
C 3155 2105 3290 2271 3290 2444 
C 3290 2694 2982 2816 2714 2816 
C 2323 2816 2106 2451 2048 2329 
C 1901 2790 1504 2816 1389 2816 
C 736 2816 390 1993 390 1849 
C 390 1823 416 1790 461 1790 
C 512 1790 525 1829 538 1855 
C 755 2572 1184 2687 1370 2687 
C 1658 2687 1715 2438 1715 2284 
C 1715 2143 1677 1993 1600 1678 
L 1382 778 
C 1286 390 1101 64 762 64 
C 730 64 570 64 435 126 
C 666 166 717 358 717 435 
C 717 563 621 640 499 640 
C 346 640 179 505 179 300 
C 179 57 480 -64 755 -64 
C 1062 -64 1280 153 1414 415 
C 1517 64 1837 -64 2074 -64 
C 2726 -64 3072 751 3072 896 
C 3072 929 3046 955 3008 955 
C 2950 955 2944 922 2925 870 
C 2752 300 2381 64 2093 64 
C 1869 64 1747 204 1747 467 
C 1747 607 1773 712 1875 1146 
L 2099 2039 
C 2195 2425 2413 2687 2707 2687 
C 2720 2687 2899 2687 3034 2624 
z
" transform="scale(0.015625)"/>
       <path id="CMR17-29" d="M 1683 1596 
C 1683 2057 1638 2839 1254 3665 
C 947 4332 422 4800 346 4800 
C 326 4800 301 4793 301 4761 
C 301 4748 307 4742 314 4729 
C 621 4408 1402 3595 1402 1603 
C 1402 -396 627 -1210 314 -1530 
C 307 -1543 301 -1549 301 -1562 
C 301 -1594 326 -1600 346 -1600 
C 416 -1600 960 -1127 1274 -422 
C 1594 289 1683 981 1683 1596 
z
" transform="scale(0.015625)"/>
      </defs>
      <use xlink:href="#CMR17-46" transform="scale(0.996264)"/>
      <use xlink:href="#CMR17-6f" transform="translate(52.176591 0)scale(0.996264)"/>
      <use xlink:href="#CMR17-72" transform="translate(97.867068 0)scale(0.996264)"/>
      <use xlink:href="#CMR17-77" transform="translate(133.147836 0)scale(0.996264)"/>
      <use xlink:href="#CMR17-61" transform="translate(197.055263 0)scale(0.996264)"/>
      <use xlink:href="#CMR17-72" transform="translate(242.74574 0)scale(0.996264)"/>
      <use xlink:href="#CMR17-64" transform="translate(278.026508 0)scale(0.996264)"/>
      <use xlink:href="#CMMI12-1c" transform="translate(358.997844 0)scale(0.996264)"/>
      <use xlink:href="#CMMI12-4d" transform="translate(401.361684 -14.943915)scale(0.697382)"/>
      <use xlink:href="#CMMI12-46" transform="translate(474.707426 -14.943915)scale(0.697382)"/>
      <use xlink:href="#CMMI12-46" transform="translate(528.394938 -14.943915)scale(0.697382)"/>
      <use xlink:href="#CMMI12-50" transform="translate(582.08245 -14.943915)scale(0.697382)"/>
      <use xlink:href="#CMR17-28" transform="translate(636.078405 0)scale(0.996264)"/>
      <use xlink:href="#CMSY10-0" transform="translate(671.359173 0)scale(0.996264)"/>
      <use xlink:href="#CMR17-31" transform="translate(748.846641 0)scale(0.996264)"/>
      <use xlink:href="#CMMI12-3b" transform="translate(794.537118 0)scale(0.996264)"/>
      <use xlink:href="#CMMI12-78" transform="translate(838.2387 0)scale(0.996264)"/>
      <use xlink:href="#CMMI12-46" transform="translate(893.67276 -14.943915)scale(0.697382)"/>
      <use xlink:href="#CMR17-29" transform="translate(947.858403 0)scale(0.996264)"/>
     </g>
    </g>
   </g>
  </g>
  <g id="axes_2">
   <g id="PathCollection_3">
    <defs>
     <path id="m0163658f1e" d="M 3 0 
L -3 -3 
L -3 3 
z
" style="stroke: #1f77b4"/>
    </defs>
    <g clip-path="url(#p74777fa156)">
     <use xlink:href="#m0163658f1e" x="101.72728" y="57.477059" style="fill: #1f77b4; stroke: #1f77b4"/>
     <use xlink:href="#m0163658f1e" x="105.787012" y="58.337058" style="fill: #1f77b4; stroke: #1f77b4"/>
     <use xlink:href="#m0163658f1e" x="109.846743" y="60.717656" style="fill: #1f77b4; stroke: #1f77b4"/>
     <use xlink:href="#m0163658f1e" x="113.906475" y="63.390054" style="fill: #1f77b4; stroke: #1f77b4"/>
     <use xlink:href="#m0163658f1e" x="117.966206" y="66.548784" style="fill: #1f77b4; stroke: #1f77b4"/>
     <use xlink:href="#m0163658f1e" x="122.025938" y="69.666987" style="fill: #1f77b4; stroke: #1f77b4"/>
     <use xlink:href="#m0163658f1e" x="126.08567" y="71.236626" style="fill: #1f77b4; stroke: #1f77b4"/>
     <use xlink:href="#m0163658f1e" x="130.145401" y="76.649103" style="fill: #1f77b4; stroke: #1f77b4"/>
     <use xlink:href="#m0163658f1e" x="134.205133" y="79.073066" style="fill: #1f77b4; stroke: #1f77b4"/>
     <use xlink:href="#m0163658f1e" x="138.264864" y="83.781576" style="fill: #1f77b4; stroke: #1f77b4"/>
     <use xlink:href="#m0163658f1e" x="142.324596" y="87.226432" style="fill: #1f77b4; stroke: #1f77b4"/>
     <use xlink:href="#m0163658f1e" x="146.384327" y="93.096873" style="fill: #1f77b4; stroke: #1f77b4"/>
     <use xlink:href="#m0163658f1e" x="150.444059" y="96.022569" style="fill: #1f77b4; stroke: #1f77b4"/>
     <use xlink:href="#m0163658f1e" x="154.50379" y="100.767149" style="fill: #1f77b4; stroke: #1f77b4"/>
     <use xlink:href="#m0163658f1e" x="158.563522" y="106.391991" style="fill: #1f77b4; stroke: #1f77b4"/>
     <use xlink:href="#m0163658f1e" x="162.623253" y="114.011203" style="fill: #1f77b4; stroke: #1f77b4"/>
     <use xlink:href="#m0163658f1e" x="166.682985" y="116.262517" style="fill: #1f77b4; stroke: #1f77b4"/>
     <use xlink:href="#m0163658f1e" x="170.742716" y="122.298919" style="fill: #1f77b4; stroke: #1f77b4"/>
     <use xlink:href="#m0163658f1e" x="174.802448" y="123.46324" style="fill: #1f77b4; stroke: #1f77b4"/>
     <use xlink:href="#m0163658f1e" x="178.862179" y="126.050124" style="fill: #1f77b4; stroke: #1f77b4"/>
     <use xlink:href="#m0163658f1e" x="182.921911" y="131.014445" style="fill: #1f77b4; stroke: #1f77b4"/>
     <use xlink:href="#m0163658f1e" x="186.981642" y="133.498957" style="fill: #1f77b4; stroke: #1f77b4"/>
     <use xlink:href="#m0163658f1e" x="191.041374" y="134.528158" style="fill: #1f77b4; stroke: #1f77b4"/>
     <use xlink:href="#m0163658f1e" x="195.101106" y="135.199054" style="fill: #1f77b4; stroke: #1f77b4"/>
     <use xlink:href="#m0163658f1e" x="199.160837" y="135.244162" style="fill: #1f77b4; stroke: #1f77b4"/>
     <use xlink:href="#m0163658f1e" x="203.220569" y="137.550594" style="fill: #1f77b4; stroke: #1f77b4"/>
     <use xlink:href="#m0163658f1e" x="207.2803" y="137.09717" style="fill: #1f77b4; stroke: #1f77b4"/>
     <use xlink:href="#m0163658f1e" x="211.340032" y="136.543075" style="fill: #1f77b4; stroke: #1f77b4"/>
     <use xlink:href="#m0163658f1e" x="215.399763" y="132.998723" style="fill: #1f77b4; stroke: #1f77b4"/>
     <use xlink:href="#m0163658f1e" x="219.459495" y="126.597329" style="fill: #1f77b4; stroke: #1f77b4"/>
     <use xlink:href="#m0163658f1e" x="223.519226" y="128.784205" style="fill: #1f77b4; stroke: #1f77b4"/>
     <use xlink:href="#m0163658f1e" x="227.578958" y="123.838283" style="fill: #1f77b4; stroke: #1f77b4"/>
     <use xlink:href="#m0163658f1e" x="231.638689" y="118.422321" style="fill: #1f77b4; stroke: #1f77b4"/>
     <use xlink:href="#m0163658f1e" x="235.698421" y="119.569579" style="fill: #1f77b4; stroke: #1f77b4"/>
     <use xlink:href="#m0163658f1e" x="239.758152" y="98.827492" style="fill: #1f77b4; stroke: #1f77b4"/>
     <use xlink:href="#m0163658f1e" x="243.817884" y="114.602502" style="fill: #1f77b4; stroke: #1f77b4"/>
     <use xlink:href="#m0163658f1e" x="247.877615" y="99.227906" style="fill: #1f77b4; stroke: #1f77b4"/>
     <use xlink:href="#m0163658f1e" x="251.937347" y="90.969573" style="fill: #1f77b4; stroke: #1f77b4"/>
     <use xlink:href="#m0163658f1e" x="255.997078" y="97.108306" style="fill: #1f77b4; stroke: #1f77b4"/>
     <use xlink:href="#m0163658f1e" x="260.05681" y="78.930003" style="fill: #1f77b4; stroke: #1f77b4"/>
     <use xlink:href="#m0163658f1e" x="264.116542" y="65.561529" style="fill: #1f77b4; stroke: #1f77b4"/>
     <use xlink:href="#m0163658f1e" x="268.176273" y="85.960346" style="fill: #1f77b4; stroke: #1f77b4"/>
     <use xlink:href="#m0163658f1e" x="272.236005" y="63.420044" style="fill: #1f77b4; stroke: #1f77b4"/>
     <use xlink:href="#m0163658f1e" x="276.295736" y="39.633515" style="fill: #1f77b4; stroke: #1f77b4"/>
     <use xlink:href="#m0163658f1e" x="280.355468" y="61.64493" style="fill: #1f77b4; stroke: #1f77b4"/>
     <use xlink:href="#m0163658f1e" x="284.415199" y="36.119356" style="fill: #1f77b4; stroke: #1f77b4"/>
     <use xlink:href="#m0163658f1e" x="288.474931" y="60.025848" style="fill: #1f77b4; stroke: #1f77b4"/>
     <use xlink:href="#m0163658f1e" x="292.534662" y="58.425813" style="fill: #1f77b4; stroke: #1f77b4"/>
     <use xlink:href="#m0163658f1e" x="296.594394" y="51.611077" style="fill: #1f77b4; stroke: #1f77b4"/>
    </g>
   </g>
   <g id="matplotlib.axis_3">
    <g id="ytick_3">
     <g id="line2d_6">
      <defs>
       <path id="m572d7c1eb3" d="M 0 0 
L -3.5 0 
" style="stroke: #000000; stroke-width: 0.8"/>
      </defs>
      <g>
       <use xlink:href="#m572d7c1eb3" x="306.540736" y="157.001792" style="stroke: #000000; stroke-width: 0.8"/>
      </g>
     </g>
     <g id="text_9">
      <!-- $\mathdefault{0}$ -->
      <g style="fill: #1f77b4" transform="translate(310.040736 163.228442)scale(0.18 -0.18)">
       <use xlink:href="#CMR17-30" transform="scale(0.996264)"/>
      </g>
     </g>
    </g>
    <g id="ytick_4">
     <g id="line2d_7">
      <g>
       <use xlink:href="#m572d7c1eb3" x="306.540736" y="75.946352" style="stroke: #000000; stroke-width: 0.8"/>
      </g>
     </g>
     <g id="text_10">
      <!-- $\mathdefault{2}$ -->
      <g style="fill: #1f77b4" transform="translate(310.040736 82.173002)scale(0.18 -0.18)">
       <defs>
        <path id="CMR17-32" d="M 2669 990 
L 2554 990 
C 2490 537 2438 460 2413 422 
C 2381 371 1920 371 1830 371 
L 602 371 
C 832 620 1280 1073 1824 1596 
C 2214 1966 2669 2400 2669 3033 
C 2669 3788 2067 4224 1395 4224 
C 691 4224 262 3603 262 3027 
C 262 2777 448 2745 525 2745 
C 589 2745 781 2783 781 3007 
C 781 3206 614 3264 525 3264 
C 486 3264 448 3257 422 3244 
C 544 3788 915 4057 1306 4057 
C 1862 4057 2227 3616 2227 3033 
C 2227 2477 1901 1998 1536 1583 
L 262 147 
L 262 0 
L 2515 0 
L 2669 990 
z
" transform="scale(0.015625)"/>
       </defs>
       <use xlink:href="#CMR17-32" transform="scale(0.996264)"/>
      </g>
     </g>
    </g>
    <g id="text_11">
     <!-- $\gamma\cdot\frac{L^2}{\tau_D\beta}$ -->
     <g style="fill: #1f77b4" transform="translate(339.659373 118.988266)rotate(-90)scale(0.18 -0.18)">
      <defs>
       <path id="CMMI12-d" d="M 2419 785 
C 2406 1097 2394 1586 2150 2158 
C 2022 2476 1805 2816 1338 2816 
C 550 2816 122 1815 122 1649 
C 122 1592 166 1592 186 1592 
C 243 1592 243 1605 275 1688 
C 410 2081 819 2393 1261 2393 
C 2150 2393 2278 1408 2278 779 
C 2278 378 2234 245 2195 118 
C 2074 -276 1862 -1064 1862 -1242 
C 1862 -1293 1882 -1351 1933 -1351 
C 2029 -1351 2086 -1140 2157 -886 
C 2310 -327 2349 -47 2381 207 
C 2400 360 2765 1409 3270 2407 
C 3315 2509 3405 2681 3405 2700 
C 3405 2707 3398 2752 3341 2752 
C 3328 2752 3296 2752 3283 2726 
C 3270 2713 3046 2280 2854 1848 
C 2758 1630 2630 1344 2419 785 
z
" transform="scale(0.015625)"/>
       <path id="CMSY10-1" d="M 1229 1619 
C 1229 1804 1075 1958 890 1958 
C 704 1958 550 1804 550 1619 
C 550 1433 704 1280 890 1280 
C 1075 1280 1229 1433 1229 1619 
z
" transform="scale(0.015625)"/>
       <path id="CMMI12-4c" d="M 2349 3860 
C 2406 4102 2426 4166 2989 4166 
C 3162 4166 3206 4166 3206 4287 
C 3206 4352 3136 4352 3110 4352 
C 2982 4352 2835 4339 2707 4339 
L 1850 4339 
C 1728 4339 1587 4352 1466 4352 
C 1414 4352 1344 4352 1344 4230 
C 1344 4166 1402 4166 1498 4166 
C 1888 4166 1888 4115 1888 4045 
C 1888 4032 1888 3994 1862 3898 
L 998 472 
C 941 249 928 185 480 185 
C 358 185 294 185 294 70 
C 294 0 333 0 461 0 
L 3328 0 
C 3469 0 3475 6 3520 121 
L 4013 1478 
C 4026 1510 4038 1548 4038 1567 
C 4038 1605 4006 1631 3974 1631 
C 3968 1631 3936 1631 3923 1605 
C 3910 1599 3910 1586 3859 1465 
C 3654 905 3366 185 2285 185 
L 1670 185 
C 1581 185 1568 185 1530 191 
C 1459 198 1453 211 1453 262 
C 1453 306 1466 344 1478 402 
L 2349 3860 
z
" transform="scale(0.015625)"/>
       <path id="CMMI12-c" d="M 3622 3739 
C 3622 4131 3296 4544 2714 4544 
C 1888 4544 1363 3510 1197 2830 
L 186 -1152 
C 173 -1204 211 -1216 243 -1216 
C 288 -1216 320 -1210 326 -1178 
L 774 592 
C 838 231 1190 -64 1568 -64 
C 2483 -64 3347 657 3347 1618 
C 3347 1863 3290 2108 3155 2314 
C 3078 2437 2982 2527 2880 2599 
C 3341 2823 3622 3222 3622 3739 
z
M 2509 2605 
C 2406 2571 2304 2560 2182 2560 
C 2093 2560 2010 2553 1894 2588 
C 1958 2627 2054 2639 2189 2639 
C 2304 2639 2419 2627 2509 2605 
z
M 3290 3798 
C 3290 3438 3117 2915 2701 2684 
C 2579 2723 2413 2752 2272 2752 
C 2138 2752 1754 2765 1754 2582 
C 1754 2411 2106 2430 2214 2430 
C 2381 2430 2528 2469 2682 2514 
C 2886 2347 2976 2127 2976 1805 
C 2976 1431 2874 1128 2752 850 
C 2541 373 2042 64 1600 64 
C 1133 64 890 438 890 876 
C 890 934 890 1018 915 1115 
L 1331 2784 
C 1542 3641 2080 4413 2701 4413 
C 3162 4413 3290 4086 3290 3798 
z
" transform="scale(0.015625)"/>
      </defs>
      <use xlink:href="#CMMI12-d" transform="scale(0.996264)"/>
      <use xlink:href="#CMSY10-1" transform="translate(78.157775 0)scale(0.996264)"/>
      <use xlink:href="#CMMI12-4c" transform="translate(151.475318 39.226102)scale(0.697382)"/>
      <use xlink:href="#CMR17-32" transform="translate(197.934731 64.533527)scale(0.498132)"/>
      <use xlink:href="#CMMI12-1c" transform="translate(129.166581 -34.355253)scale(0.697382)"/>
      <use xlink:href="#CMMI12-44" transform="translate(158.821138 -44.815949)scale(0.498132)"/>
      <use xlink:href="#CMMI12-c" transform="translate(201.171237 -34.355253)scale(0.697382)"/>
      <path d="M 129.166581 22.914133 
L 243.586839 22.914133 
L 243.586839 26.899083 
L 129.166581 26.899083 
L 129.166581 22.914133 
z
"/>
     </g>
    </g>
   </g>
   <g id="line2d_8">
    <path d="M 97.667549 56.002065 
L 101.72728 56.955745 
L 105.787012 58.528491 
L 109.846743 60.6955 
L 113.906475 63.422598 
L 117.966206 66.666776 
L 122.025938 70.376871 
L 126.08567 74.494374 
L 130.145401 78.954348 
L 134.205133 83.686458 
L 138.264864 88.616075 
L 142.324596 93.665456 
L 146.384327 98.754969 
L 150.444059 103.80435 
L 154.50379 108.733966 
L 158.563522 113.466076 
L 162.623253 117.926051 
L 166.682985 122.043553 
L 170.742716 125.753649 
L 174.802448 128.997826 
L 178.862179 131.724924 
L 182.921911 133.891933 
L 186.981642 135.464679 
L 191.041374 136.418359 
L 195.101106 136.737932 
L 199.160837 136.418359 
L 203.220569 135.464679 
L 207.2803 133.891933 
L 211.340032 131.724924 
L 215.399763 128.997826 
L 219.459495 125.753649 
L 223.519226 122.043553 
L 227.578958 117.926051 
L 231.638689 113.466076 
L 235.698421 108.733966 
L 239.758152 103.80435 
L 243.817884 98.754969 
L 247.877615 93.665456 
L 251.937347 88.616075 
L 255.997078 83.686458 
L 260.05681 78.954348 
L 264.116542 74.494374 
L 268.176273 70.376871 
L 272.236005 66.666776 
L 276.295736 63.422598 
L 280.355468 60.6955 
L 284.415199 58.528491 
L 288.474931 56.955745 
L 292.534662 56.002065 
L 296.594394 55.682492 
" clip-path="url(#p74777fa156)" style="fill: none; stroke-dasharray: 5.55,2.4; stroke-dashoffset: 0; stroke: #0000ff; stroke-width: 1.5"/>
   </g>
   <g id="line2d_9">
    <path d="M 97.667549 156.254474 
L 101.72728 154.133286 
L 105.787012 150.813774 
L 109.846743 146.464014 
L 113.906475 141.244615 
L 117.966206 135.308711 
L 122.025938 128.801969 
L 126.08567 121.862586 
L 130.145401 114.621287 
L 134.205133 107.20133 
L 138.264864 99.718499 
L 142.324596 92.281111 
L 146.384327 84.990012 
L 150.444059 77.938578 
L 154.50379 71.212714 
L 158.563522 64.890857 
L 162.623253 59.043971 
L 166.682985 53.735553 
L 170.742716 49.021628 
L 174.802448 44.950752 
L 178.862179 41.564009 
L 182.921911 38.895015 
L 186.981642 36.969916 
L 191.041374 35.807387 
L 195.101106 35.418632 
L 199.160837 35.807387 
L 203.220569 36.969916 
L 207.2803 38.895015 
L 211.340032 41.564009 
L 215.399763 44.950752 
L 219.459495 49.021628 
L 223.519226 53.735553 
L 227.578958 59.043971 
L 231.638689 64.890857 
L 235.698421 71.212714 
L 239.758152 77.938578 
L 243.817884 84.990012 
L 247.877615 92.281111 
L 251.937347 99.718499 
L 255.997078 107.20133 
L 260.05681 114.621287 
L 264.116542 121.862586 
L 268.176273 128.801969 
L 272.236005 135.308711 
L 276.295736 141.244615 
L 280.355468 146.464014 
L 284.415199 150.813774 
L 288.474931 154.133286 
L 292.534662 156.254474 
L 296.594394 157.001792 
" clip-path="url(#p74777fa156)" style="fill: none; stroke: #1f77b4; stroke-opacity: 0.3; stroke-linecap: square"/>
   </g>
   <g id="patch_8">
    <path d="M 87.721207 163.08095 
L 87.721207 29.339474 
" style="fill: none; stroke: #000000; stroke-width: 1.5; stroke-linejoin: miter; stroke-linecap: square"/>
   </g>
   <g id="patch_9">
    <path d="M 306.540736 163.08095 
L 306.540736 29.339474 
" style="fill: none; stroke: #000000; stroke-width: 1.5; stroke-linejoin: miter; stroke-linecap: square"/>
   </g>
   <g id="patch_10">
    <path d="M 87.721207 163.08095 
L 306.540736 163.08095 
" style="fill: none; stroke: #000000; stroke-width: 1.5; stroke-linejoin: miter; stroke-linecap: square"/>
   </g>
   <g id="patch_11">
    <path d="M 87.721207 29.339474 
L 306.540736 29.339474 
" style="fill: none; stroke: #000000; stroke-width: 1.5; stroke-linejoin: miter; stroke-linecap: square"/>
   </g>
   <g id="text_12">
    <!-- $\tau_\Gamma/\tau_D =0, \tau_m/\tau_D=0.001$ -->
    <g transform="translate(83.818938 23.339474)scale(0.216 -0.216)">
     <defs>
      <path id="CMR17-0" d="M 3315 4352 
L 326 4352 
L 326 4185 
C 768 4185 838 4185 838 3897 
L 838 453 
C 838 166 768 166 326 166 
L 326 0 
C 512 12 870 12 1069 12 
C 1331 12 1638 12 1901 0 
L 1901 166 
L 1760 166 
C 1274 166 1261 230 1261 460 
L 1261 3936 
C 1261 4153 1274 4185 1530 4185 
L 2234 4185 
C 3206 4185 3258 3738 3354 2939 
L 3469 2939 
L 3315 4352 
z
" transform="scale(0.015625)"/>
      <path id="CMR17-3d" d="M 4115 2048 
C 4211 2048 4307 2048 4307 2156 
C 4307 2272 4198 2272 4090 2272 
L 512 2272 
C 403 2272 294 2272 294 2156 
C 294 2048 390 2048 486 2048 
L 4115 2048 
z
M 4090 927 
C 4198 927 4307 927 4307 1043 
C 4307 1152 4211 1152 4115 1152 
L 486 1152 
C 390 1152 294 1152 294 1043 
C 294 927 403 927 512 927 
L 4090 927 
z
" transform="scale(0.015625)"/>
      <path id="CMMI12-6d" d="M 1318 1870 
C 1331 1909 1491 2228 1728 2432 
C 1894 2585 2112 2687 2362 2687 
C 2618 2687 2707 2496 2707 2241 
C 2707 2202 2707 2075 2630 1775 
L 2470 1117 
C 2419 925 2298 453 2285 383 
C 2259 287 2221 121 2221 95 
C 2221 6 2291 -64 2387 -64 
C 2579 -64 2611 83 2669 313 
L 3053 1838 
C 3066 1890 3398 2687 4102 2687 
C 4358 2687 4448 2496 4448 2241 
C 4448 1883 4198 1187 4058 804 
C 4000 651 3968 568 3968 453 
C 3968 166 4166 -64 4474 -64 
C 5069 -64 5293 874 5293 913 
C 5293 945 5267 970 5229 970 
C 5171 970 5165 951 5133 842 
C 4986 332 4749 64 4493 64 
C 4429 64 4326 70 4326 274 
C 4326 440 4403 645 4429 715 
C 4544 1021 4832 1775 4832 2145 
C 4832 2528 4608 2816 4122 2816 
C 3693 2816 3347 2573 3091 2196 
C 3072 2541 2861 2816 2381 2816 
C 1811 2816 1510 2413 1395 2253 
C 1376 2617 1114 2816 832 2816 
C 646 2816 499 2726 378 2483 
C 262 2253 173 1864 173 1838 
C 173 1813 198 1781 243 1781 
C 294 1781 301 1787 339 1934 
C 435 2311 557 2687 813 2687 
C 960 2687 1011 2585 1011 2394 
C 1011 2253 947 2004 902 1807 
L 723 1117 
C 698 996 627 708 595 593 
C 550 427 480 127 480 95 
C 480 6 550 -64 646 -64 
C 723 -64 813 -26 864 70 
C 877 102 934 325 966 453 
L 1107 1028 
L 1318 1870 
z
" transform="scale(0.015625)"/>
      <path id="CMMI12-3a" d="M 1178 307 
C 1178 492 1024 620 870 620 
C 685 620 557 467 557 313 
C 557 128 710 0 864 0 
C 1050 0 1178 153 1178 307 
z
" transform="scale(0.015625)"/>
     </defs>
     <use xlink:href="#CMMI12-1c" transform="scale(0.996264)"/>
     <use xlink:href="#CMR17-0" transform="translate(42.363841 -14.943915)scale(0.697382)"/>
     <use xlink:href="#CMMI12-3d" transform="translate(83.028776 0)scale(0.996264)"/>
     <use xlink:href="#CMMI12-1c" transform="translate(131.803695 0)scale(0.996264)"/>
     <use xlink:href="#CMMI12-44" transform="translate(174.167535 -14.943915)scale(0.697382)"/>
     <use xlink:href="#CMR17-3d" transform="translate(260.932179 0)scale(0.996264)"/>
     <use xlink:href="#CMR17-30" transform="translate(360.320977 0)scale(0.996264)"/>
     <use xlink:href="#CMMI12-3b" transform="translate(406.011454 0)scale(0.996264)"/>
     <use xlink:href="#CMMI12-1c" transform="translate(449.713036 0)scale(0.996264)"/>
     <use xlink:href="#CMMI12-6d" transform="translate(492.076877 -14.943915)scale(0.697382)"/>
     <use xlink:href="#CMMI12-3d" transform="translate(552.3038 0)scale(0.996264)"/>
     <use xlink:href="#CMMI12-1c" transform="translate(601.078718 0)scale(0.996264)"/>
     <use xlink:href="#CMMI12-44" transform="translate(643.442559 -14.943915)scale(0.697382)"/>
     <use xlink:href="#CMR17-3d" transform="translate(730.207203 0)scale(0.996264)"/>
     <use xlink:href="#CMR17-30" transform="translate(829.596 0)scale(0.996264)"/>
     <use xlink:href="#CMMI12-3a" transform="translate(875.286478 0)scale(0.996264)"/>
     <use xlink:href="#CMR17-30" transform="translate(902.383655 0)scale(0.996264)"/>
     <use xlink:href="#CMR17-30" transform="translate(948.074132 0)scale(0.996264)"/>
     <use xlink:href="#CMR17-31" transform="translate(993.764609 0)scale(0.996264)"/>
    </g>
   </g>
   <g id="legend_2">
    <g id="patch_12">
     <path d="M 10.4 110.67865 
L 295.340736 110.67865 
Q 298.540736 110.67865 298.540736 107.47865 
L 298.540736 40.539474 
Q 298.540736 37.339474 295.340736 37.339474 
L 10.4 37.339474 
Q 7.2 37.339474 7.2 40.539474 
L 7.2 107.47865 
Q 7.2 110.67865 10.4 110.67865 
z
" style="fill: #ffffff; opacity: 0.8; stroke: #cccccc; stroke-linejoin: miter"/>
    </g>
    <g id="PathCollection_4">
     <g>
      <use xlink:href="#m0163658f1e" x="29.6" y="50.739474" style="fill: #1f77b4; stroke: #1f77b4"/>
     </g>
    </g>
    <g id="text_13">
     <!-- Forward Friction -->
     <g transform="translate(58.4 54.939474)scale(0.16 -0.16)">
      <defs>
       <path id="CMR17-69" d="M 992 3961 
C 992 4102 877 4224 730 4224 
C 589 4224 467 4108 467 3961 
C 467 3820 582 3699 730 3699 
C 870 3699 992 3814 992 3961 
z
M 243 2745 
L 243 2579 
C 602 2579 653 2540 653 2231 
L 653 443 
C 653 198 627 166 218 166 
L 218 0 
C 371 12 646 12 806 12 
C 960 12 1222 12 1370 0 
L 1370 166 
C 992 166 979 205 979 436 
L 979 2816 
L 243 2745 
z
" transform="scale(0.015625)"/>
       <path id="CMR17-63" d="M 2234 2240 
C 2112 2240 1933 2240 1933 2015 
C 1933 1836 2080 1785 2163 1785 
C 2208 1785 2394 1804 2394 2028 
C 2394 2476 1958 2816 1466 2816 
C 787 2816 211 2201 211 1379 
C 211 521 813 -64 1466 -64 
C 2259 -64 2458 676 2458 747 
C 2458 773 2451 792 2406 792 
C 2362 792 2355 786 2330 702 
C 2163 180 1798 51 1523 51 
C 1114 51 621 431 621 1385 
C 621 2358 1094 2700 1472 2700 
C 1722 2700 2093 2582 2234 2240 
z
" transform="scale(0.015625)"/>
       <path id="CMR17-74" d="M 966 2585 
L 1862 2585 
L 1862 2752 
L 966 2752 
L 966 3968 
L 851 3968 
C 838 3292 614 2700 70 2687 
L 70 2585 
L 627 2585 
L 627 778 
C 627 655 627 -64 1370 -64 
C 1747 -64 1965 308 1965 784 
L 1965 1151 
L 1850 1151 
L 1850 790 
C 1850 347 1677 51 1408 51 
C 1222 51 966 179 966 765 
L 966 2585 
z
" transform="scale(0.015625)"/>
       <path id="CMR17-6e" d="M 2656 1954 
C 2656 2282 2592 2816 1837 2816 
C 1331 2816 1069 2424 973 2166 
L 966 2166 
L 966 2816 
L 211 2745 
L 211 2578 
C 589 2578 646 2540 646 2231 
L 646 443 
C 646 198 621 166 211 166 
L 211 0 
C 365 12 646 12 813 12 
C 979 12 1267 12 1421 0 
L 1421 166 
C 1011 166 986 192 986 443 
L 986 1678 
C 986 2269 1344 2713 1792 2713 
C 2266 2713 2317 2289 2317 1980 
L 2317 443 
C 2317 198 2291 166 1882 166 
L 1882 0 
C 2035 12 2317 12 2483 12 
C 2650 12 2938 12 3091 0 
L 3091 166 
C 2682 166 2656 192 2656 443 
L 2656 1954 
z
" transform="scale(0.015625)"/>
      </defs>
      <use xlink:href="#CMR17-46" transform="scale(0.996264)"/>
      <use xlink:href="#CMR17-6f" transform="translate(52.176591 0)scale(0.996264)"/>
      <use xlink:href="#CMR17-72" transform="translate(97.867068 0)scale(0.996264)"/>
      <use xlink:href="#CMR17-77" transform="translate(133.147836 0)scale(0.996264)"/>
      <use xlink:href="#CMR17-61" transform="translate(197.055263 0)scale(0.996264)"/>
      <use xlink:href="#CMR17-72" transform="translate(242.74574 0)scale(0.996264)"/>
      <use xlink:href="#CMR17-64" transform="translate(278.026508 0)scale(0.996264)"/>
      <use xlink:href="#CMR17-46" transform="translate(358.997844 0)scale(0.996264)"/>
      <use xlink:href="#CMR17-72" transform="translate(411.174435 0)scale(0.996264)"/>
      <use xlink:href="#CMR17-69" transform="translate(446.455203 0)scale(0.996264)"/>
      <use xlink:href="#CMR17-63" transform="translate(471.326261 0)scale(0.996264)"/>
      <use xlink:href="#CMR17-74" transform="translate(511.811922 0)scale(0.996264)"/>
      <use xlink:href="#CMR17-69" transform="translate(547.09269 0)scale(0.996264)"/>
      <use xlink:href="#CMR17-6f" transform="translate(571.963748 0)scale(0.996264)"/>
      <use xlink:href="#CMR17-6e" transform="translate(617.654225 0)scale(0.996264)"/>
     </g>
    </g>
    <g id="line2d_10">
     <path d="M 13.6 72.394118 
L 29.6 72.394118 
L 45.6 72.394118 
" style="fill: none; stroke-dasharray: 5.55,2.4; stroke-dashoffset: 0; stroke: #0000ff; stroke-width: 1.5"/>
    </g>
    <g id="text_14">
     <!-- Input friction $\gamma(x)=\gamma_0-cos(x\pi)$ -->
     <g transform="translate(58.4 77.994118)scale(0.16 -0.16)">
      <defs>
       <path id="CMR17-49" d="M 1261 3898 
C 1261 4185 1338 4185 1798 4185 
L 1798 4352 
C 1594 4339 1267 4339 1050 4339 
C 832 4339 506 4339 301 4352 
L 301 4185 
C 762 4185 838 4185 838 3898 
L 838 453 
C 838 166 762 166 301 166 
L 301 0 
C 506 12 832 12 1050 12 
C 1267 12 1594 12 1798 0 
L 1798 166 
C 1338 166 1261 166 1261 453 
L 1261 3898 
z
" transform="scale(0.015625)"/>
       <path id="CMR17-70" d="M 1408 -1114 
C 998 -1114 973 -1088 973 -834 
L 973 380 
C 1158 109 1427 -64 1766 -64 
C 2406 -64 3053 503 3053 1382 
C 3053 2196 2496 2816 1837 2816 
C 1453 2816 1139 2603 960 2345 
L 960 2816 
L 198 2745 
L 198 2577 
C 576 2577 634 2539 634 2228 
L 634 -834 
C 634 -1081 608 -1114 198 -1114 
L 198 -1280 
C 352 -1268 634 -1268 800 -1268 
C 966 -1268 1254 -1268 1408 -1280 
L 1408 -1114 
z
M 973 2015 
C 973 2106 973 2241 1222 2481 
C 1254 2506 1472 2700 1792 2700 
C 2259 2700 2643 2112 2643 1376 
C 2643 639 2234 38 1728 38 
C 1498 38 1248 148 1056 451 
C 973 594 973 632 973 736 
L 973 2015 
z
" transform="scale(0.015625)"/>
       <path id="CMR17-75" d="M 1882 2745 
L 1882 2579 
C 2259 2579 2317 2540 2317 2229 
L 2317 1053 
C 2317 510 2029 38 1555 38 
C 1030 38 986 355 986 691 
L 986 2816 
L 211 2745 
L 211 2579 
C 467 2579 640 2579 646 2320 
L 646 1079 
C 646 646 646 368 813 187 
C 896 103 1056 -64 1517 -64 
C 2061 -64 2272 400 2323 536 
L 2330 536 
L 2330 -64 
L 3091 -13 
L 3091 154 
C 2714 154 2656 193 2656 503 
L 2656 2816 
L 1882 2745 
z
" transform="scale(0.015625)"/>
       <path id="CMR17-66" d="M 979 2585 
L 1709 2585 
L 1709 2752 
L 966 2752 
L 966 3539 
C 966 4076 1235 4377 1510 4377 
C 1594 4377 1690 4363 1754 4339 
C 1702 4326 1568 4281 1568 4121 
C 1568 3955 1696 3904 1786 3904 
C 1875 3904 2003 3955 2003 4121 
C 2003 4353 1773 4480 1517 4480 
C 1152 4480 653 4211 653 3526 
L 653 2752 
L 141 2752 
L 141 2585 
L 653 2585 
L 653 441 
C 653 198 627 166 218 166 
L 218 0 
C 371 12 666 12 832 12 
C 1018 12 1344 12 1517 0 
L 1517 166 
C 1056 166 979 166 979 454 
L 979 2585 
z
" transform="scale(0.015625)"/>
       <path id="CMMI12-63" d="M 2502 2432 
C 2381 2432 2323 2432 2234 2355 
C 2195 2323 2125 2227 2125 2124 
C 2125 1996 2221 1919 2342 1919 
C 2496 1919 2669 2047 2669 2303 
C 2669 2591 2374 2816 1933 2816 
C 1094 2816 256 1932 256 1011 
C 256 446 602 -64 1254 -64 
C 2125 -64 2675 622 2675 706 
C 2675 745 2637 777 2611 777 
C 2592 777 2586 771 2528 712 
C 2118 161 1510 64 1267 64 
C 826 64 685 453 685 777 
C 685 1004 794 1634 1024 2073 
C 1190 2374 1536 2687 1939 2687 
C 2022 2687 2374 2676 2502 2432 
z
" transform="scale(0.015625)"/>
       <path id="CMMI12-6f" d="M 2918 1755 
C 2918 2362 2522 2816 1939 2816 
C 1094 2816 262 1896 262 996 
C 262 389 659 -64 1242 -64 
C 2093 -64 2918 855 2918 1755 
z
M 1248 64 
C 928 64 691 319 691 766 
C 691 1060 845 1711 1024 2030 
C 1312 2522 1670 2687 1933 2687 
C 2246 2687 2490 2432 2490 1985 
C 2490 1730 2355 1047 2112 657 
C 1850 230 1498 64 1248 64 
z
" transform="scale(0.015625)"/>
       <path id="CMMI12-73" d="M 1459 1290 
C 1568 1271 1741 1233 1779 1227 
C 1862 1201 2150 1099 2150 793 
C 2150 595 1971 64 1229 64 
C 1094 64 614 83 486 447 
C 742 414 870 614 870 755 
C 870 889 781 960 653 960 
C 512 960 326 851 326 563 
C 326 176 710 -64 1222 -64 
C 2195 -64 2483 665 2483 998 
C 2483 1093 2483 1271 2278 1475 
C 2118 1627 1965 1659 1619 1729 
C 1446 1767 1171 1824 1171 2111 
C 1171 2239 1286 2687 1894 2687 
C 2163 2687 2426 2589 2490 2368 
C 2208 2368 2195 2124 2195 2118 
C 2195 1983 2317 1945 2374 1945 
C 2464 1945 2643 2015 2643 2284 
C 2643 2546 2400 2816 1901 2816 
C 1062 2816 838 2169 838 1907 
C 838 1424 1312 1322 1459 1290 
z
" transform="scale(0.015625)"/>
       <path id="CMMI12-19" d="M 1658 2406 
L 2381 2406 
C 2208 1691 2099 1225 2099 715 
C 2099 625 2099 -64 2362 -64 
C 2496 -64 2611 57 2611 166 
C 2611 198 2611 210 2566 306 
C 2394 746 2394 1295 2394 1340 
C 2394 1378 2394 1832 2528 2406 
L 3245 2406 
C 3328 2406 3539 2406 3539 2611 
C 3539 2752 3418 2752 3302 2752 
L 1197 2752 
C 1050 2752 832 2752 538 2438 
C 371 2253 166 1915 166 1876 
C 166 1838 198 1825 237 1825 
C 282 1825 288 1844 320 1883 
C 653 2406 986 2406 1146 2406 
L 1510 2406 
C 1370 1927 1210 1372 685 255 
C 634 153 634 140 634 102 
C 634 -32 749 -64 806 -64 
C 992 -64 1043 102 1120 370 
C 1222 695 1222 708 1286 964 
L 1658 2406 
z
" transform="scale(0.015625)"/>
      </defs>
      <use xlink:href="#CMR17-49" transform="scale(0.996264)"/>
      <use xlink:href="#CMR17-6e" transform="translate(32.638409 0)scale(0.996264)"/>
      <use xlink:href="#CMR17-70" transform="translate(83.533779 0)scale(0.996264)"/>
      <use xlink:href="#CMR17-75" transform="translate(134.429149 0)scale(0.996264)"/>
      <use xlink:href="#CMR17-74" transform="translate(185.324519 0)scale(0.996264)"/>
      <use xlink:href="#CMR17-66" transform="translate(250.681253 0)scale(0.996264)"/>
      <use xlink:href="#CMR17-72" transform="translate(278.154765 0)scale(0.996264)"/>
      <use xlink:href="#CMR17-69" transform="translate(313.435533 0)scale(0.996264)"/>
      <use xlink:href="#CMR17-63" transform="translate(338.306591 0)scale(0.996264)"/>
      <use xlink:href="#CMR17-74" transform="translate(378.792252 0)scale(0.996264)"/>
      <use xlink:href="#CMR17-69" transform="translate(414.07302 0)scale(0.996264)"/>
      <use xlink:href="#CMR17-6f" transform="translate(438.944078 0)scale(0.996264)"/>
      <use xlink:href="#CMR17-6e" transform="translate(484.634555 0)scale(0.996264)"/>
      <use xlink:href="#CMMI12-d" transform="translate(565.605891 0)scale(0.996264)"/>
      <use xlink:href="#CMR17-28" transform="translate(621.624459 0)scale(0.996264)"/>
      <use xlink:href="#CMMI12-78" transform="translate(656.905227 0)scale(0.996264)"/>
      <use xlink:href="#CMR17-29" transform="translate(712.339287 0)scale(0.996264)"/>
      <use xlink:href="#CMR17-3d" transform="translate(775.294063 0)scale(0.996264)"/>
      <use xlink:href="#CMMI12-d" transform="translate(874.68286 0)scale(0.996264)"/>
      <use xlink:href="#CMR17-30" transform="translate(925.281993 -14.943915)scale(0.697382)"/>
      <use xlink:href="#CMSY10-0" transform="translate(979.902514 0)scale(0.996264)"/>
      <use xlink:href="#CMMI12-63" transform="translate(1079.529189 0)scale(0.996264)"/>
      <use xlink:href="#CMMI12-6f" transform="translate(1121.512422 0)scale(0.996264)"/>
      <use xlink:href="#CMMI12-73" transform="translate(1168.407732 0)scale(0.996264)"/>
      <use xlink:href="#CMR17-28" transform="translate(1214.357779 0)scale(0.996264)"/>
      <use xlink:href="#CMMI12-78" transform="translate(1249.638547 0)scale(0.996264)"/>
      <use xlink:href="#CMMI12-19" transform="translate(1305.072607 0)scale(0.996264)"/>
      <use xlink:href="#CMR17-29" transform="translate(1363.983208 0)scale(0.996264)"/>
     </g>
    </g>
    <g id="line2d_11">
     <path d="M 13.6 95.579174 
L 29.6 95.579174 
L 45.6 95.579174 
" style="fill: none; stroke: #1f77b4; stroke-opacity: 0.3; stroke-linecap: square"/>
    </g>
    <g id="text_15">
     <!-- Potential, $U_0=3k_BT$ -->
     <g transform="translate(58.4 101.179174)scale(0.16 -0.16)">
      <defs>
       <path id="CMR17-50" d="M 1267 2048 
L 2291 2048 
C 3117 2048 3718 2583 3718 3187 
C 3718 3791 3130 4352 2291 4352 
L 333 4352 
L 333 4185 
C 774 4185 845 4185 845 3899 
L 845 453 
C 845 166 774 166 333 166 
L 333 0 
C 518 12 858 12 1056 12 
C 1254 12 1594 12 1779 0 
L 1779 166 
C 1338 166 1267 166 1267 453 
L 1267 2048 
z
M 1254 2182 
L 1254 3937 
C 1254 4153 1267 4185 1523 4185 
L 2170 4185 
C 2995 4185 3232 3715 3232 3187 
C 3232 2608 2950 2182 2170 2182 
L 1254 2182 
z
" transform="scale(0.015625)"/>
       <path id="CMR17-65" d="M 2438 1503 
C 2464 1529 2464 1542 2464 1606 
C 2464 2251 2118 2816 1389 2816 
C 710 2816 173 2175 173 1394 
C 173 554 781 -64 1459 -64 
C 2176 -64 2458 619 2458 755 
C 2458 800 2419 800 2406 800 
C 2362 800 2355 787 2330 709 
C 2189 270 1837 51 1504 51 
C 1229 51 954 206 781 490 
C 582 819 582 1200 582 1503 
L 2438 1503 
z
M 589 1600 
C 634 2511 1126 2713 1382 2713 
C 1818 2713 2112 2308 2118 1600 
L 589 1600 
z
" transform="scale(0.015625)"/>
       <path id="CMR17-6c" d="M 979 4416 
L 218 4345 
L 218 4179 
C 595 4179 653 4141 653 3835 
L 653 439 
C 653 198 627 166 218 166 
L 218 0 
C 371 12 653 12 813 12 
C 979 12 1261 12 1414 0 
L 1414 166 
C 1005 166 979 191 979 439 
L 979 4416 
z
" transform="scale(0.015625)"/>
       <path id="CMR17-2c" d="M 1011 102 
C 1024 44 1024 25 1024 -76 
C 1024 -451 896 -795 627 -1108 
C 595 -1140 595 -1152 595 -1165 
C 595 -1191 621 -1216 646 -1216 
C 685 -1216 1126 -776 1126 -82 
C 1126 128 1101 524 800 524 
C 659 524 538 428 538 262 
C 538 96 659 0 800 0 
C 877 0 960 32 1011 102 
z
" transform="scale(0.015625)"/>
       <path id="CMMI12-55" d="M 3238 1469 
C 3014 579 2272 57 1670 57 
C 1210 57 896 362 896 890 
C 896 916 896 1107 966 1386 
L 1594 3886 
C 1651 4102 1664 4166 2118 4166 
C 2234 4166 2298 4166 2298 4281 
C 2298 4352 2240 4352 2202 4352 
C 2086 4352 1952 4339 1830 4339 
L 1075 4339 
C 954 4339 819 4352 698 4352 
C 653 4352 576 4352 576 4230 
C 576 4166 621 4166 742 4166 
C 1126 4166 1126 4115 1126 4045 
C 1126 4007 1082 3822 1050 3714 
L 493 1488 
C 474 1418 435 1246 435 1075 
C 435 375 941 -128 1638 -128 
C 2285 -128 3002 381 3328 1189 
C 3373 1297 3430 1520 3469 1692 
C 3533 1921 3667 2480 3712 2646 
L 3955 3600 
C 4038 3931 4090 4140 4653 4166 
C 4704 4172 4730 4223 4730 4281 
C 4730 4352 4672 4352 4646 4352 
C 4557 4352 4442 4339 4352 4339 
L 4051 4339 
C 3654 4339 3450 4352 3443 4352 
C 3405 4352 3328 4352 3328 4230 
C 3328 4166 3379 4166 3424 4166 
C 3808 4153 3834 4007 3834 3892 
C 3834 3835 3834 3816 3808 3727 
L 3238 1469 
z
" transform="scale(0.015625)"/>
       <path id="CMR17-33" d="M 1414 2176 
C 1984 2176 2234 1673 2234 1094 
C 2234 322 1824 25 1453 25 
C 1114 25 563 193 390 691 
C 422 678 454 678 486 678 
C 640 678 755 780 755 947 
C 755 1132 614 1216 486 1216 
C 378 1216 211 1164 211 927 
C 211 335 787 -128 1466 -128 
C 2176 -128 2720 432 2720 1087 
C 2720 1718 2208 2176 1600 2246 
C 2086 2347 2554 2776 2554 3353 
C 2554 3856 2048 4224 1472 4224 
C 890 4224 378 3862 378 3347 
C 378 3123 544 3084 627 3084 
C 762 3084 877 3167 877 3334 
C 877 3500 762 3584 627 3584 
C 602 3584 570 3584 544 3571 
C 730 3999 1235 4076 1459 4076 
C 1683 4076 2106 3966 2106 3347 
C 2106 3167 2080 2851 1862 2574 
C 1670 2329 1453 2316 1242 2297 
C 1210 2297 1062 2284 1037 2284 
C 992 2278 966 2272 966 2227 
C 966 2182 973 2176 1101 2176 
L 1414 2176 
z
" transform="scale(0.015625)"/>
       <path id="CMMI12-6b" d="M 1798 4255 
C 1805 4281 1818 4319 1818 4351 
C 1818 4416 1754 4416 1741 4416 
C 1734 4416 1504 4396 1389 4383 
C 1280 4377 1184 4364 1069 4358 
C 915 4345 870 4339 870 4223 
C 870 4159 934 4159 998 4159 
C 1325 4159 1325 4103 1325 4040 
C 1325 4014 1325 4002 1293 3888 
L 378 250 
C 352 153 352 141 352 102 
C 352 -39 461 -64 525 -64 
C 704 -64 742 76 794 275 
L 1094 1476 
C 1555 1425 1830 1232 1830 924 
C 1830 885 1830 860 1811 763 
C 1786 667 1786 590 1786 558 
C 1786 185 2029 -64 2355 -64 
C 2650 -64 2803 205 2854 295 
C 2989 532 3072 892 3072 917 
C 3072 949 3046 975 3008 975 
C 2950 975 2944 949 2918 847 
C 2829 513 2694 64 2368 64 
C 2240 64 2157 128 2157 372 
C 2157 494 2182 635 2208 731 
C 2234 847 2234 853 2234 930 
C 2234 1309 1894 1521 1306 1598 
C 1536 1739 1766 1989 1856 2086 
C 2221 2495 2470 2687 2765 2687 
C 2912 2687 2950 2655 2995 2624 
C 2758 2598 2669 2431 2669 2303 
C 2669 2150 2790 2099 2880 2099 
C 3053 2099 3206 2246 3206 2451 
C 3206 2634 3059 2816 2771 2816 
C 2419 2816 2131 2579 1677 2067 
C 1613 1989 1376 1746 1139 1656 
L 1798 4255 
z
" transform="scale(0.015625)"/>
       <path id="CMMI12-42" d="M 2342 3915 
C 2400 4153 2426 4166 2675 4166 
L 3507 4166 
C 4230 4166 4230 3547 4230 3489 
C 4230 2967 3712 2304 2867 2304 
L 1946 2304 
L 2342 3915 
z
M 3424 2252 
C 4122 2381 4755 2871 4755 3463 
C 4755 3966 4314 4352 3590 4352 
L 1536 4352 
C 1414 4352 1357 4352 1357 4230 
C 1357 4166 1414 4166 1510 4166 
C 1901 4166 1901 4114 1901 4043 
C 1901 4031 1901 3992 1875 3895 
L 1011 469 
C 954 248 941 185 493 185 
C 371 185 307 185 307 70 
C 307 0 346 0 474 0 
L 2669 0 
C 3648 0 4403 733 4403 1369 
C 4403 1886 3942 2201 3424 2252 
z
M 2515 185 
L 1651 185 
C 1562 185 1549 185 1510 191 
C 1440 198 1434 210 1434 261 
C 1434 305 1446 343 1459 399 
L 1907 2176 
L 3110 2176 
C 3866 2176 3866 1483 3866 1432 
C 3866 828 3309 185 2515 185 
z
" transform="scale(0.015625)"/>
       <path id="CMMI12-54" d="M 2669 3886 
C 2707 4038 2720 4096 2816 4121 
C 2867 4134 3078 4134 3213 4134 
C 3853 4134 4154 4109 4154 3612 
C 4154 3516 4128 3274 4090 3038 
L 4083 2962 
C 4083 2937 4109 2898 4147 2898 
C 4211 2898 4211 2930 4230 3032 
L 4416 4159 
C 4429 4217 4429 4230 4429 4249 
C 4429 4319 4390 4319 4262 4319 
L 762 4319 
C 614 4319 608 4313 570 4198 
L 179 3051 
C 173 3038 154 2968 154 2962 
C 154 2930 179 2898 218 2898 
C 269 2898 282 2924 307 3007 
C 576 3777 710 4134 1562 4134 
L 1990 4134 
C 2144 4134 2208 4134 2208 4064 
C 2208 4045 2208 4032 2176 3917 
L 1318 497 
C 1254 249 1242 185 563 185 
C 403 185 358 185 358 64 
C 358 0 429 0 461 0 
C 621 0 787 12 947 12 
L 1946 12 
C 2106 12 2278 0 2438 0 
C 2509 0 2573 0 2573 121 
C 2573 185 2528 185 2362 185 
C 1786 185 1786 242 1786 338 
C 1786 344 1786 389 1811 491 
L 2669 3886 
z
" transform="scale(0.015625)"/>
      </defs>
      <use xlink:href="#CMR17-50" transform="scale(0.996264)"/>
      <use xlink:href="#CMR17-6f" transform="translate(59.983847 0)scale(0.996264)"/>
      <use xlink:href="#CMR17-74" transform="translate(105.674324 0)scale(0.996264)"/>
      <use xlink:href="#CMR17-65" transform="translate(140.955092 0)scale(0.996264)"/>
      <use xlink:href="#CMR17-6e" transform="translate(181.440752 0)scale(0.996264)"/>
      <use xlink:href="#CMR17-74" transform="translate(229.733668 0)scale(0.996264)"/>
      <use xlink:href="#CMR17-69" transform="translate(265.014436 0)scale(0.996264)"/>
      <use xlink:href="#CMR17-61" transform="translate(289.885494 0)scale(0.996264)"/>
      <use xlink:href="#CMR17-6c" transform="translate(335.575971 0)scale(0.996264)"/>
      <use xlink:href="#CMR17-2c" transform="translate(360.44703 0)scale(0.996264)"/>
      <use xlink:href="#CMMI12-55" transform="translate(415.394055 0)scale(0.996264)"/>
      <use xlink:href="#CMR17-30" transform="translate(481.646174 -14.943915)scale(0.697382)"/>
      <use xlink:href="#CMR17-3d" transform="translate(541.801496 0)scale(0.996264)"/>
      <use xlink:href="#CMR17-33" transform="translate(641.190293 0)scale(0.996264)"/>
      <use xlink:href="#CMMI12-6b" transform="translate(686.880771 0)scale(0.996264)"/>
      <use xlink:href="#CMMI12-42" transform="translate(737.615959 -14.943915)scale(0.697382)"/>
      <use xlink:href="#CMMI12-54" transform="translate(793.508717 0)scale(0.996264)"/>
     </g>
    </g>
   </g>
  </g>
 </g>
 <defs>
  <clipPath id="p74777fa156">
   <rect x="87.721207" y="29.339474" width="218.819529" height="133.741476"/>
  </clipPath>
 </defs>
</svg>
